<svg xmlns="http://www.w3.org/2000/svg" xmlns:xlink="http://www.w3.org/1999/xlink" width="500" zoomAndPan="magnify" viewBox="0 0 375 374.999991" height="500" preserveAspectRatio="xMidYMid meet" version="1.0"><defs><clipPath id="23f4ee6d1a"><path d="M 134 43 L 256 43 L 256 314.636719 L 134 314.636719 Z M 134 43 " clip-rule="nonzero"/></clipPath><clipPath id="8350d31e89"><path d="M 188 251 L 202 251 L 202 266 L 188 266 Z M 188 251 " clip-rule="nonzero"/></clipPath><clipPath id="a42efeb2d1"><path d="M 203.894531 248.929688 L 186.230469 252.210938 L 186.230469 270.171875 L 203.894531 266.890625 Z M 203.894531 248.929688 " clip-rule="nonzero"/></clipPath><clipPath id="11881a5a50"><path d="M 197 263 L 200 263 L 200 266 L 197 266 Z M 197 263 " clip-rule="nonzero"/></clipPath><clipPath id="116693104a"><path d="M 203.894531 248.929688 L 186.230469 252.210938 L 186.230469 270.171875 L 203.894531 266.890625 Z M 203.894531 248.929688 " clip-rule="nonzero"/></clipPath><clipPath id="3e068db0ef"><path d="M 189 265 L 192 265 L 192 268 L 189 268 Z M 189 265 " clip-rule="nonzero"/></clipPath><clipPath id="0eb07e3438"><path d="M 203.894531 248.929688 L 186.230469 252.210938 L 186.230469 270.171875 L 203.894531 266.890625 Z M 203.894531 248.929688 " clip-rule="nonzero"/></clipPath><clipPath id="1b45019597"><path d="M 127.476562 204 L 184 204 L 184 251 L 127.476562 251 Z M 127.476562 204 " clip-rule="nonzero"/></clipPath><clipPath id="89c6d6924a"><path d="M 127.476562 219 L 139 219 L 139 235 L 127.476562 235 Z M 127.476562 219 " clip-rule="nonzero"/></clipPath><clipPath id="b83821444e"><path d="M 235 110 L 337.476562 110 L 337.476562 193 L 235 193 Z M 235 110 " clip-rule="nonzero"/></clipPath><clipPath id="bf41cbd173"><path d="M 49 81 L 151 81 L 151 347.691406 L 49 347.691406 Z M 49 81 " clip-rule="nonzero"/></clipPath><clipPath id="d15d6c30a8"><path d="M 49 85 L 146 85 L 146 347.691406 L 49 347.691406 Z M 49 85 " clip-rule="nonzero"/></clipPath></defs><g clip-path="url(#23f4ee6d1a)"><path fill="#000000" d="M 255.789062 58.785156 C 255.789062 48.554688 247.660156 41.761719 237.65625 43.636719 L 152.546875 59.410156 C 142.542969 61.285156 134.417969 71.042969 134.417969 81.273438 L 134.417969 139.605469 C 134.101562 139.683594 134.417969 139.839844 134.417969 140.230469 L 134.417969 169.203125 C 134.417969 169.515625 134.101562 169.828125 134.417969 169.828125 L 134.417969 298.988281 C 134.417969 309.214844 142.542969 316.007812 152.546875 314.136719 L 237.65625 298.363281 C 247.660156 296.488281 255.789062 286.726562 255.789062 276.496094 L 255.789062 154.445312 C 256.101562 154.367188 255.789062 154.210938 255.789062 153.820312 L 255.789062 135.546875 C 255.789062 135.234375 256.101562 134.921875 255.789062 134.921875 L 255.789062 129.84375 C 256.101562 129.765625 255.789062 129.609375 255.789062 129.222656 L 255.789062 111.105469 C 255.789062 110.792969 256.101562 110.480469 255.789062 110.480469 L 255.789062 102.4375 C 256.101562 102.359375 255.789062 102.203125 255.789062 101.8125 L 255.789062 93.222656 C 255.789062 92.910156 256.101562 92.597656 255.789062 92.597656 Z M 255.789062 58.785156 " fill-opacity="1" fill-rule="evenodd"/></g><path fill="#004aad" d="M 237.65625 49.570312 C 244.457031 48.320312 249.925781 52.929688 249.925781 59.878906 L 249.925781 277.511719 C 249.925781 284.460938 244.457031 291.097656 237.65625 292.347656 L 152.546875 308.121094 C 145.75 309.371094 140.277344 304.765625 140.277344 297.816406 L 140.277344 80.179688 C 140.277344 73.230469 145.75 66.59375 152.546875 65.34375 L 170.992188 61.90625 C 172.164062 61.671875 172.398438 62.375 172.398438 63.546875 C 172.398438 67.21875 173.257812 70.574219 178.574219 69.640625 L 211.554688 63.546875 C 216.867188 62.53125 217.726562 58.863281 217.726562 55.191406 C 217.726562 54.019531 218.039062 53.238281 219.136719 53.003906 Z M 237.65625 49.570312 " fill-opacity="1" fill-rule="evenodd"/><path fill="#fffadc" d="M 243.050781 119.226562 C 243.050781 115.554688 243.050781 113.757812 241.957031 112.820312 C 240.863281 111.886719 239.0625 112.199219 235.46875 112.898438 L 204.597656 118.601562 C 201.003906 119.304688 199.207031 119.617188 198.113281 120.941406 C 197.015625 122.269531 197.015625 124.144531 197.015625 127.738281 L 197.015625 162.097656 C 197.015625 165.765625 197.015625 167.5625 198.113281 168.5 C 199.207031 169.4375 201.003906 169.125 204.597656 168.421875 L 235.46875 162.722656 C 239.0625 162.019531 240.863281 161.707031 241.957031 160.378906 C 243.050781 159.050781 243.050781 157.175781 243.050781 153.585938 Z M 243.050781 119.226562 " fill-opacity="1" fill-rule="nonzero"/><path fill="#000000" d="M 219.996094 130.546875 L 219.996094 152.414062 L 211.867188 153.898438 L 211.867188 139.761719 L 210.304688 142.183594 C 210.148438 142.417969 209.757812 142.496094 209.601562 142.339844 L 205.457031 138.902344 C 205.378906 138.824219 205.378906 138.746094 205.457031 138.667969 L 210.460938 132.578125 C 211.710938 131.09375 213.351562 130 215.148438 129.6875 L 216.007812 130.078125 C 217.257812 130.78125 218.585938 130.9375 219.996094 130.546875 Z M 219.996094 130.546875 L 219.996094 152.414062 L 228.121094 150.929688 L 228.121094 136.796875 L 229.6875 138.589844 C 229.84375 138.824219 230.234375 138.746094 230.390625 138.511719 L 234.453125 133.671875 C 234.53125 133.59375 234.53125 133.4375 234.453125 133.359375 L 229.53125 129.144531 C 228.277344 128.128906 226.636719 127.660156 224.839844 127.972656 L 223.980469 128.753906 C 222.808594 129.765625 221.480469 130.390625 219.996094 130.546875 Z M 219.996094 130.546875 " fill-opacity="1" fill-rule="evenodd"/><path fill="#fffadc" d="M 193.1875 128.441406 C 193.1875 124.769531 193.1875 122.972656 192.09375 122.035156 C 191 121.097656 189.203125 121.410156 185.605469 122.113281 L 154.734375 127.816406 C 151.140625 128.519531 149.34375 128.832031 148.25 130.15625 C 147.15625 131.484375 147.15625 133.359375 147.15625 136.953125 L 147.15625 171.3125 C 147.15625 174.980469 147.15625 176.777344 148.25 177.714844 C 149.34375 178.652344 151.140625 178.339844 154.734375 177.636719 L 185.605469 171.933594 C 189.203125 171.234375 191 170.921875 192.09375 169.59375 C 193.1875 168.265625 193.1875 166.390625 193.1875 162.800781 Z M 193.1875 128.441406 " fill-opacity="1" fill-rule="nonzero"/><path fill="#000000" d="M 174.820312 136.796875 C 174.820312 136.40625 174.507812 136.171875 174.117188 136.25 C 173.726562 136.328125 173.414062 136.71875 173.414062 137.03125 L 173.414062 139.292969 C 172.945312 139.449219 172.476562 139.683594 172.085938 140.074219 L 170.132812 141.949219 L 170.132812 159.128906 L 170.132812 141.949219 L 168.101562 140.777344 C 167.710938 140.542969 167.242188 140.464844 166.773438 140.464844 L 166.773438 138.199219 C 166.773438 137.8125 166.460938 137.578125 166.070312 137.65625 C 165.675781 137.734375 165.363281 138.121094 165.363281 138.433594 L 165.363281 140.855469 C 164.972656 141.089844 164.582031 141.402344 164.269531 141.792969 C 163.332031 142.964844 163.175781 144.527344 163.957031 145.464844 L 165.207031 147.179688 C 165.753906 147.882812 165.832031 148.898438 165.519531 149.914062 L 161.535156 162.175781 C 161.457031 162.332031 161.378906 162.410156 161.378906 162.488281 C 161.378906 163.5 165.285156 163.65625 170.054688 162.722656 C 174.820312 161.863281 178.730469 160.300781 178.730469 159.285156 C 178.730469 159.207031 178.652344 159.050781 178.574219 158.972656 L 174.585938 148.117188 C 174.273438 147.257812 174.351562 146.167969 174.898438 145.230469 L 176.148438 143.121094 C 176.855469 141.871094 176.777344 140.386719 175.835938 139.527344 C 175.523438 139.214844 175.132812 139.058594 174.742188 138.980469 L 174.742188 136.796875 Z M 174.820312 136.796875 " fill-opacity="1" fill-rule="evenodd"/><path fill="#fffadc" d="M 243.050781 173.886719 C 243.050781 170.21875 243.050781 168.421875 241.957031 167.484375 C 240.863281 166.546875 239.0625 166.859375 235.46875 167.5625 L 204.597656 173.261719 C 201.003906 173.964844 199.207031 174.277344 198.113281 175.605469 C 197.015625 176.933594 197.015625 178.808594 197.015625 182.398438 L 197.015625 216.757812 C 197.015625 220.429688 197.015625 222.226562 198.113281 223.160156 C 199.207031 224.097656 201.003906 223.785156 204.597656 223.082031 L 235.46875 217.382812 C 239.0625 216.679688 240.863281 216.367188 241.957031 215.039062 C 243.050781 213.714844 243.050781 211.839844 243.050781 208.246094 Z M 243.050781 173.886719 " fill-opacity="1" fill-rule="nonzero"/><path fill="#000000" d="M 215.617188 192.550781 L 216.710938 196.144531 L 214.289062 197.3125 L 213.195312 193.644531 L 209.757812 195.207031 C 207.253906 196.378906 205.457031 198.953125 205.457031 201.609375 L 205.457031 204.1875 L 234.53125 198.796875 L 234.53125 188.257812 L 225.621094 187.945312 L 219.527344 190.675781 L 220.621094 194.191406 L 218.195312 195.363281 L 217.101562 191.847656 Z M 229.058594 195.519531 C 228.042969 195.675781 227.261719 195.050781 227.261719 194.035156 C 227.261719 193.019531 228.042969 192.003906 229.058594 191.847656 C 230.078125 191.691406 230.859375 192.316406 230.859375 193.332031 C 230.9375 194.347656 230.078125 195.363281 229.058594 195.519531 Z M 229.058594 195.519531 " fill-opacity="1" fill-rule="evenodd"/><path fill="#fffadc" d="M 193.1875 183.101562 C 193.1875 179.433594 193.1875 177.636719 192.09375 176.699219 C 191 175.761719 189.203125 176.074219 185.605469 176.777344 L 154.734375 182.476562 C 151.140625 183.179688 149.34375 183.492188 148.25 184.820312 C 147.15625 186.148438 147.15625 188.023438 147.15625 191.613281 L 147.15625 225.972656 C 147.15625 229.644531 147.15625 231.4375 148.25 232.375 C 149.34375 233.3125 151.140625 233 154.734375 232.296875 L 185.605469 226.597656 C 189.203125 225.894531 191 225.582031 192.09375 224.253906 C 193.1875 222.925781 193.1875 221.054688 193.1875 217.460938 Z M 193.1875 183.101562 " fill-opacity="1" fill-rule="nonzero"/><path fill="#000000" d="M 179.355469 193.175781 C 179.355469 192.628906 178.964844 192.316406 178.417969 192.394531 L 162.863281 195.285156 C 162.316406 195.363281 161.925781 195.910156 161.925781 196.457031 L 161.925781 214.105469 C 161.925781 214.183594 162.003906 214.257812 162.082031 214.257812 L 169.429688 212.933594 C 169.507812 212.933594 169.585938 212.855469 169.585938 212.699219 L 170.445312 203.484375 C 170.445312 203.25 170.757812 203.171875 170.835938 203.40625 L 171.695312 212.230469 C 171.695312 212.308594 171.773438 212.386719 171.851562 212.386719 L 179.199219 211.058594 C 179.277344 211.058594 179.355469 210.902344 179.355469 210.824219 Z M 179.667969 211.605469 C 179.667969 211.527344 179.589844 211.449219 179.511719 211.449219 L 171.226562 213.011719 C 171.148438 213.011719 171.070312 213.167969 171.070312 213.246094 L 171.070312 214.960938 C 171.070312 215.039062 171.148438 215.117188 171.226562 215.117188 L 179.511719 213.558594 C 179.589844 213.558594 179.667969 213.402344 179.667969 213.324219 Z M 169.898438 213.246094 C 169.976562 213.246094 170.054688 213.324219 170.054688 213.402344 L 170.054688 215.117188 C 170.054688 215.195312 169.976562 215.351562 169.898438 215.351562 L 161.613281 216.914062 C 161.535156 216.914062 161.457031 216.835938 161.457031 216.757812 L 161.457031 215.039062 C 161.457031 214.960938 161.535156 214.804688 161.613281 214.804688 Z M 169.898438 213.246094 " fill-opacity="1" fill-rule="evenodd"/><path fill="#000000" d="M 240.472656 251.195312 C 240.472656 244.636719 235.234375 240.261719 228.746094 241.433594 L 161.378906 253.929688 C 154.890625 255.101562 149.65625 261.425781 149.65625 267.984375 C 149.65625 274.542969 154.890625 278.917969 161.378906 277.746094 L 228.746094 265.25 C 235.234375 264.003906 240.472656 257.753906 240.472656 251.195312 Z M 240.472656 251.195312 " fill-opacity="1" fill-rule="nonzero"/><g clip-path="url(#8350d31e89)"><g clip-path="url(#a42efeb2d1)"><path fill="#fffadc" d="M 188.65625 256.429688 C 188.890625 256.117188 189.28125 255.882812 189.671875 255.804688 L 199.753906 253.929688 L 199.832031 253.226562 C 199.832031 252.757812 200.144531 252.367188 200.457031 252.054688 L 201.316406 251.507812 C 201.550781 251.351562 201.785156 251.429688 201.863281 251.664062 C 201.941406 251.898438 201.863281 252.132812 201.628906 252.289062 L 200.847656 252.835938 C 200.769531 252.914062 200.691406 253.070312 200.691406 253.148438 L 200.222656 261.503906 C 200.144531 262.363281 199.441406 263.144531 198.582031 263.300781 L 189.4375 265.019531 C 189.203125 265.097656 189.046875 264.863281 189.046875 264.707031 C 189.046875 264.472656 189.203125 264.238281 189.4375 264.238281 L 198.582031 262.519531 C 199.050781 262.441406 199.363281 262.050781 199.441406 261.660156 L 199.441406 261.269531 L 190.375 262.285156 C 189.75 262.363281 189.203125 261.972656 189.125 261.347656 L 188.5 257.753906 C 188.265625 257.207031 188.421875 256.738281 188.65625 256.429688 Z M 188.65625 256.429688 " fill-opacity="1" fill-rule="nonzero"/></g></g><g clip-path="url(#11881a5a50)"><g clip-path="url(#116693104a)"><path fill="#fffadc" d="M 199.597656 264.785156 C 199.597656 265.019531 199.519531 265.328125 199.285156 265.5625 C 199.128906 265.796875 198.894531 265.953125 198.582031 265.953125 C 198.347656 266.03125 198.113281 265.953125 197.878906 265.796875 C 197.722656 265.640625 197.566406 265.40625 197.566406 265.171875 C 197.566406 264.941406 197.644531 264.628906 197.878906 264.394531 C 198.035156 264.160156 198.269531 264.003906 198.582031 264.003906 C 198.816406 263.925781 199.050781 264.003906 199.285156 264.160156 C 199.519531 264.316406 199.597656 264.550781 199.597656 264.785156 Z M 199.597656 264.785156 " fill-opacity="1" fill-rule="nonzero"/></g></g><g clip-path="url(#3e068db0ef)"><g clip-path="url(#0eb07e3438)"><path fill="#fffadc" d="M 191.859375 266.1875 C 191.859375 266.421875 191.78125 266.734375 191.546875 266.96875 C 191.390625 267.203125 191.15625 267.359375 190.84375 267.359375 C 190.609375 267.4375 190.375 267.359375 190.140625 267.203125 C 189.90625 267.046875 189.828125 266.8125 189.828125 266.578125 C 189.828125 266.34375 189.90625 266.03125 190.140625 265.796875 C 190.296875 265.5625 190.53125 265.40625 190.84375 265.40625 C 191.078125 265.328125 191.3125 265.40625 191.546875 265.5625 C 191.78125 265.71875 191.859375 265.953125 191.859375 266.1875 Z M 191.859375 266.1875 " fill-opacity="1" fill-rule="nonzero"/></g></g><g clip-path="url(#1b45019597)"><path fill="#ebf3f5" d="M 84.945312 229.800781 C 84.945312 226.363281 84.945312 224.644531 86.039062 223.316406 C 87.132812 221.992188 88.773438 221.757812 92.210938 221.132812 L 176.621094 205.515625 C 180.058594 204.890625 181.699219 204.578125 182.792969 205.4375 C 183.886719 206.292969 183.886719 208.011719 183.886719 211.527344 L 183.886719 225.269531 C 183.886719 228.707031 183.886719 230.425781 182.792969 231.75 C 181.699219 233 180.058594 233.3125 176.621094 233.9375 L 92.210938 249.554688 C 88.773438 250.179688 87.132812 250.492188 86.039062 249.632812 C 84.945312 248.773438 84.945312 246.980469 84.945312 243.542969 Z M 84.945312 229.800781 " fill-opacity="1" fill-rule="nonzero"/></g><g clip-path="url(#89c6d6924a)"><path fill="#ff8933" d="M 131.445312 219.804688 L 133.164062 224.800781 L 138.636719 223.785156 L 134.179688 227.925781 L 135.902344 232.921875 L 131.445312 230.503906 L 126.992188 234.640625 L 128.710938 229.019531 L 124.257812 226.597656 L 129.726562 225.582031 Z M 131.445312 219.804688 " fill-opacity="1" fill-rule="nonzero"/></g><path fill="#ff8933" d="M 146.140625 217.070312 L 147.859375 222.070312 L 153.328125 221.054688 L 148.875 225.191406 L 150.59375 230.191406 L 146.140625 227.769531 L 141.683594 231.90625 L 143.402344 226.285156 L 138.949219 223.863281 L 144.417969 222.847656 Z M 146.140625 217.070312 " fill-opacity="1" fill-rule="nonzero"/><path fill="#ff8933" d="M 160.832031 214.414062 L 162.550781 219.414062 L 168.023438 218.398438 L 163.566406 222.539062 L 165.285156 227.535156 L 160.832031 225.113281 L 156.378906 229.253906 L 158.097656 223.628906 L 153.640625 221.210938 L 159.113281 220.195312 Z M 160.832031 214.414062 " fill-opacity="1" fill-rule="nonzero"/><path fill="#000000" d="M 148.796875 121.800781 L 161.378906 119.460938 L 161.066406 123.753906 C 160.988281 125.238281 160.207031 126.722656 158.957031 127.972656 C 157.707031 129.222656 156.066406 130.078125 154.421875 130.390625 C 152.78125 130.703125 151.21875 130.390625 150.125 129.609375 C 149.03125 128.832031 148.484375 127.503906 148.5625 126.019531 Z M 148.796875 121.800781 " fill-opacity="1" fill-rule="nonzero"/><path fill="#004aad" d="M 161.300781 119.539062 L 173.804688 117.195312 L 173.492188 121.488281 C 173.414062 122.972656 172.632812 124.457031 171.382812 125.707031 C 170.132812 126.957031 168.492188 127.816406 166.851562 128.128906 C 165.207031 128.441406 163.644531 128.128906 162.550781 127.347656 C 161.457031 126.566406 160.910156 125.238281 160.988281 123.753906 Z M 161.300781 119.539062 " fill-opacity="1" fill-rule="nonzero"/><path fill="#000000" d="M 173.882812 117.195312 L 186.386719 114.851562 L 186.074219 119.148438 C 185.996094 120.632812 185.214844 122.113281 183.964844 123.363281 C 182.714844 124.613281 181.074219 125.472656 179.433594 125.785156 C 177.792969 126.097656 176.226562 125.785156 175.132812 125.003906 C 174.039062 124.222656 173.492188 122.894531 173.570312 121.410156 Z M 173.882812 117.195312 " fill-opacity="1" fill-rule="nonzero"/><path fill="#004aad" d="M 186.386719 114.851562 L 198.894531 112.507812 L 198.582031 116.804688 C 198.503906 118.289062 197.722656 119.773438 196.46875 121.019531 C 195.21875 122.269531 193.578125 123.128906 191.9375 123.441406 C 190.296875 123.753906 188.734375 123.441406 187.640625 122.660156 C 186.542969 121.878906 185.996094 120.554688 186.074219 119.070312 Z M 186.386719 114.851562 " fill-opacity="1" fill-rule="nonzero"/><path fill="#000000" d="M 198.972656 112.507812 L 211.554688 110.167969 L 211.242188 114.460938 C 211.164062 115.945312 210.382812 117.429688 209.132812 118.679688 C 207.878906 119.929688 206.238281 120.789062 204.597656 121.097656 C 202.957031 121.410156 201.394531 121.097656 200.300781 120.320312 C 199.207031 119.539062 198.660156 118.210938 198.738281 116.726562 Z M 198.972656 112.507812 " fill-opacity="1" fill-rule="nonzero"/><path fill="#004aad" d="M 211.476562 110.246094 L 224.058594 107.902344 L 223.746094 112.199219 C 223.667969 113.679688 222.886719 115.164062 221.636719 116.414062 C 220.386719 117.664062 218.746094 118.523438 217.101562 118.835938 C 215.460938 119.148438 213.898438 118.835938 212.804688 118.054688 C 211.710938 117.273438 211.164062 115.945312 211.242188 114.460938 Z M 211.476562 110.246094 " fill-opacity="1" fill-rule="nonzero"/><path fill="#000000" d="M 224.058594 107.902344 L 236.5625 105.558594 L 236.25 109.855469 C 236.171875 111.339844 235.390625 112.820312 234.140625 114.070312 C 232.890625 115.320312 231.25 116.179688 229.609375 116.492188 C 227.964844 116.804688 226.402344 116.492188 225.308594 115.710938 C 224.214844 114.929688 223.667969 113.601562 223.746094 112.121094 Z M 224.058594 107.902344 " fill-opacity="1" fill-rule="nonzero"/><path fill="#004aad" d="M 236.5625 105.558594 L 249.144531 103.21875 L 248.832031 107.511719 C 248.753906 108.214844 248.597656 108.996094 248.207031 109.699219 C 247.816406 110.402344 247.347656 111.105469 246.722656 111.730469 C 246.097656 112.355469 245.394531 112.898438 244.613281 113.289062 C 243.832031 113.679688 242.972656 113.992188 242.191406 114.148438 C 240.550781 114.460938 238.984375 114.148438 237.890625 113.367188 C 236.796875 112.585938 236.25 111.261719 236.328125 109.777344 Z M 236.5625 105.558594 " fill-opacity="1" fill-rule="nonzero"/><path fill="#000000" d="M 249.144531 103.21875 L 261.652344 100.875 L 261.339844 105.167969 C 261.261719 106.652344 260.476562 108.136719 259.226562 109.386719 C 257.976562 110.636719 256.335938 111.496094 254.695312 111.808594 C 253.835938 111.964844 253.054688 111.964844 252.351562 111.808594 C 251.648438 111.652344 250.945312 111.417969 250.398438 111.027344 C 249.847656 110.636719 249.457031 110.089844 249.144531 109.464844 C 248.910156 108.839844 248.753906 108.136719 248.832031 107.433594 Z M 249.144531 103.21875 " fill-opacity="1" fill-rule="nonzero"/><path fill="#004aad" d="M 261.652344 100.953125 L 274.234375 98.609375 L 273.921875 102.90625 C 273.84375 104.386719 273.0625 105.871094 271.8125 107.121094 C 270.558594 108.371094 268.917969 109.230469 267.277344 109.542969 C 265.636719 109.855469 264.074219 109.542969 262.980469 108.761719 C 261.886719 107.980469 261.339844 106.652344 261.417969 105.167969 Z M 261.652344 100.953125 " fill-opacity="1" fill-rule="nonzero"/><path fill="#004aad" d="M 140.902344 75.417969 L 150.671875 73.621094 L 161.300781 119.460938 L 148.71875 121.800781 Z M 140.902344 75.417969 " fill-opacity="1" fill-rule="nonzero"/><path fill="#fffadc" d="M 150.671875 73.621094 L 160.441406 71.824219 L 173.804688 117.195312 L 161.300781 119.539062 Z M 150.671875 73.621094 " fill-opacity="1" fill-rule="nonzero"/><path fill="#004aad" d="M 160.441406 71.824219 L 170.210938 70.027344 L 186.386719 114.851562 L 173.804688 117.195312 Z M 160.441406 71.824219 " fill-opacity="1" fill-rule="nonzero"/><path fill="#fffadc" d="M 170.210938 70.027344 L 179.980469 68.234375 L 198.972656 112.585938 L 186.386719 114.929688 Z M 170.210938 70.027344 " fill-opacity="1" fill-rule="nonzero"/><path fill="#004aad" d="M 179.980469 68.234375 L 189.75 66.4375 L 211.476562 110.246094 L 198.972656 112.585938 Z M 179.980469 68.234375 " fill-opacity="1" fill-rule="nonzero"/><path fill="#fffadc" d="M 189.75 66.4375 L 199.519531 64.640625 L 224.058594 107.902344 L 211.476562 110.246094 Z M 189.75 66.4375 " fill-opacity="1" fill-rule="nonzero"/><path fill="#004aad" d="M 199.519531 64.5625 L 209.289062 62.765625 L 236.5625 105.558594 L 224.058594 107.902344 Z M 199.519531 64.5625 " fill-opacity="1" fill-rule="nonzero"/><path fill="#fffadc" d="M 209.289062 62.765625 L 219.058594 60.972656 L 249.144531 103.21875 L 236.5625 105.558594 Z M 209.289062 62.765625 " fill-opacity="1" fill-rule="nonzero"/><path fill="#004aad" d="M 219.058594 60.972656 L 228.824219 59.175781 L 261.652344 100.953125 L 249.066406 103.296875 Z M 219.058594 60.972656 " fill-opacity="1" fill-rule="nonzero"/><path fill="#fffadc" d="M 228.824219 59.175781 L 238.59375 57.378906 L 274.234375 98.609375 L 261.730469 100.953125 Z M 228.824219 59.175781 " fill-opacity="1" fill-rule="nonzero"/><path fill="#004aad" d="M 238.59375 57.378906 L 248.363281 55.582031 L 286.738281 96.265625 L 274.15625 98.609375 Z M 238.59375 57.378906 " fill-opacity="1" fill-rule="nonzero"/><path fill="#000000" d="M 274.234375 98.609375 L 286.816406 96.265625 L 286.503906 100.5625 C 286.425781 102.046875 285.644531 103.53125 284.394531 104.777344 C 283.144531 106.027344 281.5 106.886719 279.859375 107.199219 C 278.21875 107.511719 276.65625 107.199219 275.5625 106.417969 C 274.46875 105.636719 273.921875 104.308594 274 102.828125 Z M 274.234375 98.609375 " fill-opacity="1" fill-rule="nonzero"/><g clip-path="url(#b83821444e)"><path fill="#000000" d="M 235.15625 138.589844 C 235.15625 133.59375 235.15625 131.09375 236.71875 129.300781 C 238.28125 127.503906 240.707031 127.035156 245.628906 126.097656 L 327.222656 110.949219 C 332.144531 110.011719 334.570312 109.621094 336.132812 110.871094 C 337.695312 112.121094 337.695312 114.617188 337.695312 119.617188 L 337.695312 163.578125 C 337.695312 168.578125 337.695312 171.078125 336.132812 172.871094 C 334.570312 174.667969 332.144531 175.136719 327.222656 176.074219 L 245.550781 191.222656 C 240.628906 192.160156 238.203125 192.550781 236.640625 191.300781 C 235.078125 190.050781 235.078125 187.554688 235.078125 182.554688 L 235.078125 138.589844 Z M 235.15625 138.589844 " fill-opacity="0.8392" fill-rule="nonzero"/></g><path fill="#ebf3f5" d="M 246.878906 133.984375 C 245.472656 134.21875 244.300781 135.625 244.300781 137.109375 L 244.300781 140.074219 L 250.632812 138.902344 L 250.632812 136.796875 C 250.632812 135.703125 251.492188 134.6875 252.585938 134.453125 L 256.101562 133.828125 C 257.195312 133.59375 258.054688 134.375 258.054688 135.46875 L 258.054688 137.578125 L 264.386719 136.40625 L 264.386719 137.03125 L 258.054688 138.199219 L 258.054688 142.027344 L 264.386719 140.855469 L 264.386719 141.480469 L 258.054688 142.652344 L 258.054688 144.996094 C 258.054688 146.089844 257.195312 147.101562 256.101562 147.335938 L 252.585938 147.960938 C 251.492188 148.195312 250.632812 147.414062 250.632812 146.324219 L 250.632812 143.980469 L 244.300781 145.152344 L 244.300781 148.273438 C 244.300781 149.757812 245.472656 150.695312 246.878906 150.460938 L 261.808594 147.726562 C 263.214844 147.492188 264.386719 146.089844 264.386719 144.605469 L 264.386719 133.515625 C 264.386719 132.03125 263.214844 131.09375 261.808594 131.328125 Z M 244.222656 144.449219 L 250.554688 143.277344 L 250.554688 139.449219 L 244.222656 140.621094 Z M 252.507812 135.078125 L 256.023438 134.453125 C 256.726562 134.296875 257.351562 134.765625 257.351562 135.546875 L 257.351562 144.996094 C 257.351562 145.699219 256.804688 146.398438 256.023438 146.554688 L 252.507812 147.179688 C 251.804688 147.335938 251.179688 146.867188 251.179688 146.089844 L 251.179688 136.640625 C 251.257812 135.9375 251.804688 135.234375 252.507812 135.078125 Z M 252.507812 135.078125 " fill-opacity="1" fill-rule="evenodd"/><path fill="#fffadc" d="M 244.222656 174.667969 C 244.222656 174.277344 244.535156 173.964844 244.847656 173.886719 L 253.757812 172.246094 C 254.148438 172.167969 254.382812 172.402344 254.382812 172.792969 L 254.382812 174.980469 C 254.382812 175.371094 254.070312 175.683594 253.757812 175.761719 L 244.847656 177.402344 C 244.457031 177.480469 244.222656 177.246094 244.222656 176.855469 Z M 244.222656 174.667969 " fill-opacity="1" fill-rule="nonzero"/><path fill="#fffadc" d="M 256.492188 172.402344 C 256.492188 172.011719 256.804688 171.703125 257.117188 171.625 L 281.03125 167.171875 C 281.421875 167.09375 281.65625 167.328125 281.65625 167.71875 L 281.65625 169.90625 C 281.65625 170.296875 281.34375 170.609375 281.03125 170.6875 L 257.117188 175.136719 C 256.726562 175.214844 256.492188 174.980469 256.492188 174.589844 Z M 256.492188 172.402344 " fill-opacity="1" fill-rule="nonzero"/><path fill="#fffadc" d="M 244.222656 164.359375 C 244.222656 163.65625 244.769531 162.957031 245.550781 162.800781 L 261.027344 159.910156 C 261.730469 159.753906 262.355469 160.222656 262.355469 161.003906 L 262.355469 163.8125 C 262.355469 164.515625 261.808594 165.21875 261.027344 165.375 L 245.550781 168.265625 C 244.847656 168.421875 244.222656 167.953125 244.222656 167.171875 Z M 244.222656 164.359375 " fill-opacity="1" fill-rule="nonzero"/><path fill="#fffadc" d="M 266.886719 160.144531 C 266.886719 159.441406 267.433594 158.738281 268.214844 158.582031 L 283.691406 155.691406 C 284.394531 155.535156 285.019531 156.003906 285.019531 156.785156 L 285.019531 159.597656 C 285.019531 160.300781 284.472656 161.003906 283.691406 161.160156 L 268.214844 164.046875 C 267.511719 164.203125 266.886719 163.734375 266.886719 162.957031 Z M 266.886719 160.144531 " fill-opacity="1" fill-rule="nonzero"/><path fill="#fffadc" d="M 289.472656 155.925781 C 289.472656 155.222656 290.019531 154.523438 290.800781 154.367188 L 306.277344 151.476562 C 306.980469 151.320312 307.605469 151.789062 307.605469 152.570312 L 307.605469 155.378906 C 307.605469 156.082031 307.058594 156.785156 306.277344 156.941406 L 290.800781 159.832031 C 290.097656 159.988281 289.472656 159.519531 289.472656 158.738281 Z M 289.472656 155.925781 " fill-opacity="1" fill-rule="nonzero"/><path fill="#fffadc" d="M 312.058594 151.789062 C 312.058594 151.085938 312.605469 150.382812 313.390625 150.226562 L 328.863281 147.335938 C 329.566406 147.179688 330.191406 147.726562 330.191406 148.429688 L 330.191406 151.242188 C 330.191406 151.945312 329.644531 152.648438 328.863281 152.804688 L 313.390625 155.691406 C 312.683594 155.847656 312.058594 155.378906 312.058594 154.601562 Z M 312.058594 151.789062 " fill-opacity="1" fill-rule="nonzero"/><g clip-path="url(#bf41cbd173)"><path fill="#004aad" d="M 146.550781 319.476562 C 146.550781 319.476562 141.539062 301.839844 141.046875 297.667969 C 139.394531 283.679688 138.070312 259.851562 137.8125 253.695312 C 137.558594 247.539062 151.117188 207.917969 150.078125 189.070312 C 149.777344 183.636719 145.484375 171.71875 144.238281 166.527344 C 142.757812 160.355469 143.960938 155.582031 142 148.703125 C 141.960938 148.5625 141.910156 148.417969 141.867188 148.273438 C 142.074219 146.304688 142.199219 144.277344 142.238281 142.230469 C 142.316406 137.964844 141.648438 133.386719 140.304688 128.996094 L 140.472656 128.949219 C 140.472656 128.949219 140.476562 128.957031 140.476562 128.957031 C 140.476562 128.953125 140.476562 128.949219 140.476562 128.945312 L 140.640625 128.898438 L 140.476562 128.929688 C 140.207031 119.074219 134.417969 113.382812 131.179688 111.078125 C 131.074219 111.003906 130.957031 110.933594 130.835938 110.863281 C 130.816406 110.917969 130.792969 110.972656 130.773438 111.027344 C 130.765625 111.023438 130.753906 111.015625 130.746094 111.011719 L 130.628906 110.941406 L 130.667969 110.8125 C 130.824219 110.308594 130.882812 109.765625 130.847656 109.230469 L 130.839844 109.128906 L 130.925781 109.074219 C 131.535156 108.683594 131.367188 107.890625 131.171875 106.972656 C 131.066406 106.464844 130.953125 105.941406 130.988281 105.464844 C 131.054688 104.523438 131.566406 103.855469 132.0625 103.207031 C 132.488281 102.652344 132.929688 102.078125 133.085938 101.328125 C 133.253906 100.523438 133.105469 99.785156 132.949219 99 C 132.75 98.023438 132.546875 97.011719 133.035156 95.90625 C 133.351562 95.183594 133.980469 94.65625 134.589844 94.148438 C 135.414062 93.453125 136.128906 92.855469 135.828125 91.945312 C 135.488281 90.925781 132.882812 89.101562 131.984375 88.472656 C 125.433594 83.886719 119.839844 81.75 114.375 81.75 C 111.699219 81.75 108.988281 82.277344 106.320312 83.324219 C 102.855469 84.679688 99.804688 87.578125 98.542969 90.710938 L 98.457031 90.921875 C 98.082031 91.84375 97.566406 93.109375 98.050781 93.960938 C 98.277344 94.363281 98.507812 94.410156 98.664062 94.410156 C 98.738281 94.410156 98.820312 94.398438 98.90625 94.371094 L 99.40625 94.226562 L 99.09375 94.644531 C 97.046875 97.375 95.109375 99.953125 97.433594 103.433594 C 98.046875 103.003906 98.585938 102.355469 99.070312 101.777344 L 99.40625 101.375 L 99.375 101.898438 C 99.3125 102.976562 99.289062 104.074219 99.3125 105.164062 C 99.351562 106.96875 99.511719 108.699219 99.777344 110.351562 C 99.710938 110.371094 99.648438 110.421875 99.640625 110.5 C 99.636719 110.519531 99.640625 110.542969 99.636719 110.5625 C 99.625 110.746094 99.617188 110.933594 99.617188 111.125 C 99.613281 111.222656 99.621094 111.324219 99.625 111.421875 C 96.125 116.527344 93.214844 124.582031 91.960938 128.046875 C 91.726562 128.699219 91.539062 129.210938 91.410156 129.539062 C 90.191406 132.566406 88.402344 135.804688 84.414062 136.933594 C 84.421875 137.539062 84.398438 138.238281 84.375 138.972656 C 84.324219 140.375 84.277344 141.824219 84.460938 142.785156 C 84.769531 145.203125 85.148438 146.746094 87.875 147.734375 L 88.011719 147.785156 L 86.195312 157.570312 L 83.363281 178.234375 L 79.730469 194.992188 L 79.699219 195.027344 C 78.855469 195.972656 78.1875 196.941406 77.652344 197.988281 C 76.4375 200.007812 75.085938 204.867188 76.523438 206.746094 C 76.660156 206.921875 76.785156 207.011719 76.902344 207.011719 C 77.007812 207.011719 77.128906 206.941406 77.261719 206.808594 L 77.648438 206.421875 L 72.109375 239.621094 L 68.578125 260.113281 L 64.964844 280.5625 L 60.335938 300.804688 L 57.65625 319.402344 L 57.484375 319.378906 L 57.179688 321.5 L 55.554688 329.652344 C 55.613281 329.65625 55.667969 329.667969 55.726562 329.675781 L 55.691406 329.839844 L 55.535156 329.824219 C 55.167969 329.78125 54.839844 329.761719 54.53125 329.761719 C 53.75 329.761719 53.128906 329.894531 52.632812 330.171875 C 51.472656 330.820312 51.339844 333 51.242188 334.59375 C 51.214844 335.046875 51.191406 335.476562 51.144531 335.828125 C 51.070312 336.390625 50.890625 337.164062 50.679688 338.0625 C 50.042969 340.773438 49.082031 344.875 50.671875 346.027344 C 52.039062 347.011719 54.691406 347.121094 56.625 347.199219 C 56.96875 347.214844 57.289062 347.226562 57.578125 347.242188 C 57.800781 347.253906 58.003906 347.261719 58.195312 347.261719 C 59.054688 347.261719 59.621094 347.132812 59.980469 346.851562 C 60.542969 346.40625 60.636719 345.558594 60.78125 344.273438 C 60.816406 343.972656 60.851562 343.648438 60.898438 343.300781 C 60.972656 342.738281 61.136719 341.929688 61.332031 340.996094 C 62.058594 337.5 63.269531 331.65625 60.914062 330.867188 C 60.53125 330.738281 60.085938 330.625 59.511719 330.515625 L 59.339844 330.480469 L 59.371094 330.3125 C 59.429688 330.324219 59.488281 330.332031 59.542969 330.34375 L 61.160156 322.234375 L 61.492188 319.949219 L 61.488281 319.949219 L 61.320312 319.925781 L 63.960938 301.558594 L 68.582031 281.34375 L 72.226562 260.75 L 75.761719 240.234375 L 80.371094 212.578125 L 80.714844 212.597656 C 80.734375 212.917969 80.773438 213.167969 80.835938 213.34375 C 80.960938 213.683594 81.125 213.683594 81.183594 213.683594 C 81.828125 213.683594 83.167969 212.09375 84.769531 209.4375 C 85.621094 208.019531 86.234375 207.667969 87.167969 207.132812 C 87.503906 206.941406 87.882812 206.726562 88.335938 206.425781 C 89.726562 205.5 89.75 204.941406 89.808594 203.585938 C 89.820312 203.335938 89.832031 203.058594 89.855469 202.75 C 89.878906 202.425781 89.894531 202.144531 89.90625 201.894531 C 90.007812 200.007812 90.09375 199.75 92.21875 198.230469 C 94.824219 196.179688 100.492188 194.589844 107.628906 192.722656 L 107.863281 192.660156 L 107.847656 192.84375 C 107.789062 192.859375 107.730469 192.875 107.671875 192.890625 C 107.625 193.488281 107.578125 194.089844 107.53125 194.6875 C 106.453125 200.289062 105.488281 206.003906 103.835938 211.378906 C 101.722656 219.074219 98.832031 226.382812 97.488281 234.078125 C 96.820312 237.921875 95.753906 241.386719 95.46875 245.230469 C 95.195312 249.464844 96.078125 253.695312 95.800781 257.925781 C 95.679688 267.925781 96.328125 277.929688 95.816406 287.929688 C 95.5625 292.929688 95.308594 297.933594 95.441406 302.933594 C 96.738281 303.253906 98.171875 303.371094 99.652344 303.429688 C 99.753906 303.433594 99.859375 303.4375 99.960938 303.4375 L 99.742188 303.578125 C 97.136719 305.21875 93.976562 306.488281 89.800781 307.566406 C 87.636719 308.074219 85.050781 309.25 84.492188 310.632812 C 84.289062 311.128906 84.351562 311.617188 84.683594 312.125 L 84.820312 312.34375 L 84.570312 312.390625 C 84.25 312.449219 84.039062 312.640625 83.949219 312.957031 C 83.738281 313.707031 84.21875 314.871094 84.769531 315.371094 C 85.390625 315.933594 86.792969 316.355469 87.8125 316.664062 C 88.105469 316.75 88.378906 316.832031 88.605469 316.910156 C 90.234375 317.457031 92.046875 317.710938 94.300781 317.710938 C 95.40625 317.710938 96.484375 317.652344 97.675781 317.585938 C 99.71875 317.464844 106.777344 316.699219 111.660156 316.066406 L 111.667969 316.066406 C 111.675781 316.125 111.675781 316.183594 111.683594 316.242188 C 112.046875 319.882812 113.792969 323.570312 113.792969 323.570312 C 113.792969 323.570312 115.625 323.808594 117.882812 324.039062 C 117.957031 324.046875 118.039062 324.054688 118.113281 324.0625 L 118 324.167969 C 117.699219 324.4375 117.460938 324.632812 117.269531 324.761719 C 114.855469 326.917969 111.714844 328.738281 107.386719 330.480469 C 105.316406 331.265625 102.914062 332.765625 102.535156 334.210938 C 102.398438 334.730469 102.523438 335.210938 102.917969 335.679688 L 103.082031 335.875 L 102.835938 335.953125 C 102.527344 336.054688 102.347656 336.269531 102.300781 336.597656 C 102.183594 337.371094 102.808594 338.472656 103.421875 338.898438 C 104.109375 339.375 105.546875 339.617188 106.59375 339.792969 C 106.894531 339.839844 107.175781 339.886719 107.410156 339.933594 C 108.320312 340.117188 109.261719 340.203125 110.285156 340.203125 C 112.457031 340.203125 114.585938 339.800781 116.460938 339.441406 C 119.289062 338.90625 130.769531 336.0625 133.710938 335.125 C 134.871094 334.757812 136.097656 334.4375 137.289062 334.128906 C 139.320312 333.605469 141.421875 333.058594 143.230469 332.246094 C 145.101562 331.40625 145.664062 330.988281 145.179688 329.238281 C 144.960938 328.457031 144.699219 327.898438 144.351562 327.476562 L 144.289062 327.398438 L 144.324219 327.304688 C 144.40625 327.09375 144.457031 326.914062 144.476562 326.746094 C 144.695312 324.882812 142.984375 322.535156 141.738281 320.820312 L 141.699219 320.765625 C 141.757812 320.75 141.820312 320.734375 141.878906 320.71875 C 144.617188 320.003906 146.550781 319.476562 146.550781 319.476562 Z M 140.46875 128.929688 L 140.304688 128.960938 C 140.300781 128.800781 140.289062 128.644531 140.28125 128.488281 C 140.386719 128.734375 140.449219 128.890625 140.46875 128.929688 Z M 107.441406 177.167969 C 101.988281 179.664062 91.824219 185.914062 86.105469 189.964844 C 85.648438 190.261719 85.183594 190.5625 84.714844 190.875 L 84.359375 191.109375 L 87 178.949219 L 89.84375 158.203125 L 91.878906 147.230469 L 92.222656 147.242188 L 92.28125 147.800781 C 92.328125 148.292969 92.371094 148.753906 92.433594 149.039062 C 92.800781 150.109375 93.203125 150.675781 93.597656 150.675781 C 94.371094 150.675781 95.289062 148.679688 95.957031 147.222656 C 96.265625 146.554688 96.558594 145.921875 96.8125 145.5 C 97.035156 145.03125 97.304688 144.609375 97.566406 144.203125 C 98.164062 143.273438 98.730469 142.398438 98.695312 141.03125 C 98.757812 140.179688 98.679688 139.546875 98.605469 138.9375 C 98.464844 137.785156 98.34375 136.789062 99.308594 134.933594 C 100.128906 133.207031 101.253906 131.390625 102.851562 129.222656 L 103.039062 128.96875 C 103.023438 129.085938 103.007812 129.207031 102.992188 129.324219 C 102.859375 130.425781 102.765625 131.535156 102.695312 132.621094 C 102.519531 135.207031 102.460938 137.65625 102.296875 139.527344 C 102.292969 139.566406 102.292969 139.601562 102.289062 139.640625 C 101.730469 145.699219 105.753906 166.660156 107.371094 177.011719 C 107.429688 176.984375 107.480469 176.964844 107.535156 176.9375 C 107.539062 176.953125 107.539062 176.96875 107.542969 176.984375 L 107.5625 177.113281 Z M 102.871094 132.535156 C 102.871094 132.574219 102.867188 132.609375 102.863281 132.644531 C 102.847656 132.757812 102.839844 132.871094 102.824219 132.984375 C 102.808594 132.910156 102.785156 132.84375 102.769531 132.773438 C 102.746094 132.660156 102.796875 132.582031 102.871094 132.535156 Z M 102.871094 132.535156 " fill-opacity="1" fill-rule="nonzero"/></g><path fill="#fffadc" d="M 119.917969 131.195312 C 117.742188 131.714844 115.78125 132.921875 114.101562 134.484375 C 114.113281 134.519531 114.128906 134.554688 114.140625 134.589844 C 114.183594 134.714844 114.050781 134.855469 113.917969 134.8125 C 113.882812 134.800781 113.851562 134.777344 113.816406 134.761719 C 111.820312 136.703125 110.234375 139.132812 109.1875 141.488281 C 106.34375 147.882812 108.105469 154.660156 112.453125 160.085938 C 112.546875 160.203125 112.644531 160.320312 112.738281 160.4375 C 113.207031 158.171875 113.621094 156.109375 113.898438 154.609375 C 113.863281 154.636719 113.828125 154.65625 113.773438 154.660156 C 113.023438 154.710938 112.496094 154.535156 111.746094 154.425781 C 111.582031 154.402344 111.476562 154.214844 111.46875 154.066406 C 111.304688 148.941406 114.617188 144.507812 115.074219 139.449219 C 115.101562 139.140625 115.558594 139.128906 115.5625 139.449219 C 115.570312 142.273438 114.574219 144.800781 113.628906 147.429688 C 113.132812 148.808594 112.574219 150.230469 112.359375 151.6875 C 112.082031 153.59375 112.277344 153.660156 113.832031 154.246094 C 113.886719 154.265625 113.921875 154.300781 113.945312 154.339844 C 114.054688 153.746094 114.136719 153.253906 114.191406 152.890625 C 114.757812 148.921875 134.417969 154.789062 133.574219 157.347656 C 133.222656 158.410156 131.886719 163.359375 130.269531 168.9375 C 134.421875 167.015625 136.847656 161.554688 137.949219 157.535156 C 140.222656 149.230469 130.832031 128.578125 119.917969 131.195312 Z M 134.207031 158.09375 C 136.207031 157.996094 135.421875 155.023438 135.246094 153.601562 C 135.015625 151.699219 134.550781 149.816406 134.390625 147.910156 C 134.371094 147.667969 134.71875 147.652344 134.789062 147.855469 C 135.957031 151.046875 136.523438 154.910156 136.148438 158.296875 C 136.121094 158.554688 135.917969 158.738281 135.644531 158.675781 C 135.171875 158.5625 134.695312 158.5 134.210938 158.496094 C 133.949219 158.484375 133.949219 158.105469 134.207031 158.09375 Z M 142.414062 142.234375 C 142.371094 144.507812 142.226562 146.660156 142 148.703125 C 141.542969 147.09375 140.910156 145.371094 140.03125 143.484375 C 136.917969 136.804688 132.730469 125.769531 124.957031 125.765625 C 117.320312 125.765625 112.234375 130.613281 109.820312 132.835938 C 109.695312 132.792969 109.535156 132.820312 109.476562 132.953125 C 109.4375 133.035156 109.414062 133.128906 109.390625 133.226562 C 109.042969 133.539062 108.765625 133.769531 108.570312 133.867188 C 107.289062 134.515625 105.304688 127.964844 106.035156 121.820312 C 108.582031 123.292969 111.894531 123.605469 116.078125 122.277344 C 120.257812 121.007812 123.375 118.464844 125.445312 115.296875 C 125.597656 115.265625 125.742188 115.238281 125.867188 115.207031 C 126.757812 115.042969 127.445312 114.472656 128.160156 113.953125 C 136.136719 117.953125 140.394531 128.746094 140.472656 128.945312 C 141.816406 133.339844 142.492188 137.945312 142.414062 142.234375 Z M 102.296875 139.527344 C 102.257812 137.152344 102.386719 134.851562 102.691406 132.621094 C 102.519531 135.207031 102.460938 137.65625 102.296875 139.527344 Z M 102.296875 139.527344 " fill-opacity="1" fill-rule="nonzero"/><path fill="#f38e64" d="M 84.238281 136.804688 C 87.992188 135.796875 89.832031 132.996094 91.25 129.472656 C 92.09375 127.324219 95.40625 117.148438 99.617188 111.121094 C 99.585938 114.824219 101.863281 119.695312 105.164062 121.441406 C 103.960938 123.582031 103.34375 126.414062 102.992188 129.324219 C 101.636719 131.164062 100.394531 133.046875 99.464844 135.007812 C 98.023438 137.773438 99.050781 138.53125 98.867188 141.042969 C 98.917969 143.058594 97.683594 144.0625 96.96875 145.570312 C 95.757812 147.585938 93.90625 153.871094 92.269531 149.09375 C 92.171875 148.667969 92.128906 147.980469 92.050781 147.261719 C 91.902344 145.855469 91.632812 144.316406 90.632812 144.316406 C 89.625 144.316406 88.332031 147.152344 87.847656 147.910156 C 87.835938 147.90625 87.828125 147.902344 87.816406 147.898438 C 85.042969 146.890625 84.605469 145.3125 84.289062 142.804688 C 84 141.296875 84.285156 138.5625 84.238281 136.804688 Z M 133.574219 157.347656 C 133.222656 158.40625 131.886719 163.355469 130.269531 168.9375 C 127.992188 176.800781 125.160156 185.921875 123.753906 187.199219 C 121.371094 189.363281 114.507812 191.101562 107.671875 192.890625 C 101.335938 194.546875 95.019531 196.246094 92.328125 198.363281 C 89.890625 200.105469 90.21875 200.140625 90.027344 202.761719 C 89.886719 204.730469 90.167969 205.417969 88.433594 206.570312 C 86.699219 207.71875 86.042969 207.65625 84.917969 209.527344 C 84.167969 210.773438 81.367188 215.285156 80.675781 213.402344 C 80.601562 213.199219 80.558594 212.925781 80.542969 212.605469 C 80.394531 209.972656 81.917969 203.949219 80.863281 203.289062 C 79.347656 202.34375 78.386719 205.925781 77.386719 206.929688 C 77.0625 207.253906 76.738281 207.308594 76.386719 206.851562 C 74.839844 204.824219 76.378906 199.769531 77.503906 197.898438 C 78.074219 196.785156 78.78125 195.796875 79.570312 194.910156 C 81.058594 193.234375 82.847656 191.910156 84.617188 190.730469 C 85.085938 190.417969 85.554688 190.113281 86.011719 189.820312 C 92.058594 185.535156 102.167969 179.390625 107.371094 177.011719 C 108.15625 176.652344 108.832031 176.375 109.363281 176.207031 C 109.363281 176.207031 111.300781 167.386719 112.738281 160.433594 C 113.207031 158.167969 113.621094 156.105469 113.894531 154.609375 C 113.980469 154.542969 114.003906 154.429688 113.945312 154.335938 C 114.054688 153.746094 114.136719 153.253906 114.1875 152.890625 C 114.761719 148.921875 134.421875 154.789062 133.574219 157.347656 Z M 86.050781 204.859375 C 86.035156 204.460938 85.554688 204.363281 85.339844 204.667969 C 84.9375 205.222656 85.027344 206.105469 84.824219 206.753906 C 84.632812 207.355469 84.191406 208.179688 84.738281 208.710938 C 84.808594 208.78125 84.90625 208.769531 84.980469 208.710938 C 85.484375 208.308594 85.636719 207.347656 85.832031 206.761719 C 86.019531 206.191406 86.074219 205.453125 86.050781 204.859375 Z M 88.480469 204.746094 C 88.496094 204.566406 88.230469 204.546875 88.179688 204.703125 C 88.109375 204.929688 87.980469 205.113281 87.902344 205.332031 C 87.816406 205.570312 87.75 205.804688 87.707031 206.050781 C 87.6875 206.171875 87.800781 206.28125 87.917969 206.214844 C 88.125 206.101562 88.324219 205.894531 88.394531 205.667969 C 88.484375 205.363281 88.453125 205.058594 88.480469 204.746094 Z M 120.003906 175.78125 C 119.441406 175.625 118.882812 175.730469 118.304688 175.703125 C 117.144531 175.644531 115.972656 175.265625 114.832031 175.058594 C 113.199219 174.761719 111.523438 174.660156 110.140625 175.707031 C 109.8125 175.960938 110.085938 176.457031 110.46875 176.269531 C 112.488281 175.296875 114.839844 176.136719 116.898438 176.5625 C 117.839844 176.753906 119.625 177.230469 120.132812 176.097656 C 120.1875 175.972656 120.148438 175.820312 120.003906 175.78125 Z M 99.140625 105.167969 C 99.117188 104.082031 99.136719 102.980469 99.203125 101.890625 C 100.449219 100.398438 101.367188 97.699219 103.609375 98.488281 C 106.503906 99.257812 108.148438 101.324219 111.425781 101.132812 C 111.039062 98.25 115.949219 101.398438 117.296875 102.167969 C 117.664062 102.371094 120.933594 105.015625 120.933594 105.015625 C 120.933594 105.015625 123.980469 106.398438 124.546875 106.964844 C 125.703125 107.925781 126.730469 108.824219 127.167969 107.9375 C 127.289062 108.035156 127.417969 108.136719 127.546875 108.234375 C 127.296875 108.382812 127.078125 108.644531 126.933594 109.046875 C 126.632812 109.902344 126.613281 110.753906 126.191406 111.578125 C 125.675781 112.585938 124.699219 112.1875 123.96875 112.757812 C 123.929688 112.789062 123.949219 112.839844 123.980469 112.863281 C 124.78125 113.472656 126.046875 112.917969 126.617188 112.234375 C 126.96875 111.8125 127.199219 111.234375 127.328125 110.707031 C 127.40625 110.378906 127.441406 110.042969 127.511719 109.714844 C 127.699219 108.800781 128.738281 108.503906 129.132812 109.59375 C 129.296875 110.042969 129.992188 109.863281 129.894531 109.441406 C 130.109375 109.476562 130.320312 109.476562 130.511719 109.429688 C 130.71875 109.378906 130.882812 109.304688 131.019531 109.21875 C 131.058594 109.777344 130.992188 110.347656 130.832031 110.859375 C 130.746094 111.144531 130.632812 111.414062 130.492188 111.648438 C 130.007812 112.609375 129.335938 113.089844 128.5625 113.667969 C 128.425781 113.757812 128.292969 113.855469 128.160156 113.953125 C 127.445312 114.476562 126.757812 115.046875 125.863281 115.207031 C 125.742188 115.238281 125.597656 115.269531 125.445312 115.296875 C 123.375 118.464844 120.253906 121.007812 116.078125 122.277344 C 111.894531 123.609375 108.582031 123.292969 106.03125 121.820312 C 105.851562 121.71875 105.671875 121.609375 105.496094 121.492188 C 104.335938 119.878906 102.933594 118.503906 101.898438 116.78125 C 100.710938 114.808594 100.28125 112.691406 99.949219 110.457031 C 99.921875 110.269531 99.652344 110.335938 99.640625 110.5 C 99.636719 110.519531 99.640625 110.542969 99.636719 110.5625 C 99.34375 108.855469 99.179688 107.042969 99.140625 105.167969 Z M 112.175781 107.902344 C 112.222656 109.25 113.929688 110.210938 115.121094 110.414062 C 116.496094 110.644531 118.292969 109.78125 119.164062 108.757812 C 119.339844 108.546875 119.167969 108.292969 118.910156 108.328125 C 117.746094 108.484375 116.835938 109.316406 115.644531 109.441406 C 114.160156 109.597656 113.671875 108.191406 112.550781 107.6875 C 112.390625 107.617188 112.171875 107.699219 112.175781 107.902344 Z M 110.308594 118.527344 C 109 118.566406 107.441406 118.144531 106.625 117.03125 C 106.472656 116.820312 106.164062 116.996094 106.273438 117.238281 C 106.875 118.519531 107.863281 119.132812 109.296875 119.3125 C 110.402344 119.453125 112.597656 119.53125 113.378906 118.566406 C 113.484375 118.433594 113.476562 118.171875 113.265625 118.136719 C 112.332031 117.984375 111.273438 118.496094 110.308594 118.527344 Z M 105.398438 113.125 C 105.320312 114.628906 107.128906 115.949219 108.570312 115.757812 C 108.78125 115.730469 108.925781 115.492188 108.753906 115.320312 C 108.296875 114.859375 107.78125 114.746094 107.191406 114.449219 C 105.628906 113.65625 106.875 112.058594 107.445312 111.046875 C 108.078125 109.921875 108.679688 108.566406 108.4375 107.257812 C 108.390625 107.003906 107.980469 107.003906 107.933594 107.253906 C 107.699219 108.457031 107.273438 109.53125 106.699219 110.613281 C 106.300781 111.359375 105.445312 112.242188 105.398438 113.125 Z M 105.398438 113.125 " fill-opacity="1" fill-rule="nonzero"/><path fill="#ffde59" d="M 86.855469 153.082031 L 87.816406 147.898438 C 87.828125 147.902344 87.835938 147.90625 87.847656 147.910156 C 88.332031 147.15625 89.625 144.316406 90.632812 144.316406 C 91.632812 144.316406 91.902344 145.855469 92.050781 147.261719 L 90.835938 153.816406 Z M 144.652344 326.765625 C 144.625 326.972656 144.566406 327.171875 144.488281 327.367188 C 143.652344 329.484375 139.941406 330.734375 138 331.386719 C 134.464844 332.453125 130.546875 332.453125 127.019531 333.875 C 123.839844 334.941406 120.292969 335.652344 116.75 336.363281 C 113.203125 337.074219 108.609375 338.496094 104.652344 337.074219 C 103.753906 336.660156 103.152344 336.230469 102.785156 335.789062 C 100.929688 333.582031 104.972656 331.210938 107.324219 330.320312 C 110.851562 328.898438 114.367188 327.121094 117.15625 324.632812 C 117.382812 324.476562 117.628906 324.269531 117.882812 324.039062 C 120.273438 324.285156 123.136719 324.519531 124.808594 324.457031 C 127.566406 324.351562 136.359375 322.15625 141.882812 320.71875 C 143.183594 322.503906 144.875 324.847656 144.652344 326.765625 Z M 123.8125 325.996094 C 121.511719 326.636719 119.792969 328.285156 117.730469 329.410156 C 116.800781 329.917969 115.835938 330.378906 114.898438 330.882812 C 113.628906 331.566406 112.554688 332.230469 111.355469 330.546875 C 110.945312 329.972656 111.007812 330.007812 110.539062 329.53125 C 110.28125 329.265625 109.8125 329.613281 110.019531 329.929688 C 111.113281 331.601562 111.890625 333.09375 114.0625 332.148438 C 115.460938 331.542969 116.738281 330.707031 118.132812 330.09375 C 120.230469 329.175781 121.800781 327.414062 123.980469 326.605469 C 124.355469 326.46875 124.210938 325.886719 123.8125 325.996094 Z M 139.511719 322.679688 C 138.367188 322.527344 137.417969 323.882812 136.890625 324.730469 C 136.207031 325.820312 135.589844 327.328125 135.476562 328.609375 C 135.453125 328.882812 135.871094 328.984375 135.988281 328.75 C 136.5 327.75 136.707031 326.613281 137.21875 325.601562 C 137.507812 325.019531 137.886719 324.496094 138.339844 324.03125 C 138.746094 323.605469 139.296875 323.394531 139.652344 322.921875 C 139.734375 322.8125 139.617188 322.691406 139.511719 322.679688 Z M 108.898438 313.4375 C 105.597656 314.082031 101.980469 314.332031 98.359375 314.578125 C 94.742188 314.828125 89.984375 315.644531 86.230469 313.730469 C 85.390625 313.207031 84.851562 312.703125 84.539062 312.21875 C 82.976562 309.800781 87.304688 307.972656 89.761719 307.398438 C 93.210938 306.507812 96.6875 305.296875 99.652344 303.429688 C 101.707031 303.511719 103.847656 303.476562 105.871094 303.703125 C 107.554688 304.117188 109.464844 304.644531 111.410156 304.984375 C 111.542969 307.644531 111.617188 310.308594 111.621094 312.964844 C 110.707031 313.058594 109.796875 313.203125 108.898438 313.4375 Z M 106.835938 305.628906 C 105.121094 305.601562 103.617188 306.363281 102.09375 307.078125 C 100.984375 307.605469 99.878906 308.101562 98.726562 308.535156 C 96.773438 309.277344 95.878906 307.902344 94.917969 306.550781 C 94.722656 306.277344 94.3125 306.511719 94.464844 306.816406 C 95.121094 308.132812 96.0625 310.007812 97.886719 309.605469 C 100.984375 308.921875 103.9375 307.132812 106.886719 306 C 107.078125 305.925781 107.058594 305.632812 106.835938 305.628906 Z M 97.898438 94.046875 C 97.332031 93.050781 98.007812 91.582031 98.382812 90.644531 C 99.726562 87.300781 102.9375 84.460938 106.257812 83.160156 C 115.753906 79.445312 124.058594 82.710938 132.082031 88.332031 C 133.019531 88.988281 135.632812 90.800781 135.992188 91.890625 C 136.566406 93.621094 133.933594 94.300781 133.195312 95.976562 C 132.359375 97.875 133.652344 99.472656 133.253906 101.363281 C 132.902344 103.035156 131.28125 103.796875 131.160156 105.476562 C 131.074219 106.765625 132.109375 108.519531 131.019531 109.21875 C 130.882812 109.304688 130.71875 109.378906 130.511719 109.429688 C 130.320312 109.476562 130.109375 109.472656 129.894531 109.441406 C 129.425781 109.371094 128.917969 109.140625 128.417969 108.832031 C 128.121094 108.652344 127.828125 108.445312 127.546875 108.234375 C 127.417969 108.132812 127.289062 108.035156 127.167969 107.9375 C 126.726562 107.582031 126.34375 107.242188 126.074219 107.007812 C 124.402344 105.574219 124.023438 103.6875 122.644531 102.210938 C 120.589844 100.007812 119.460938 97.449219 116.648438 95.902344 C 114.878906 94.929688 113.097656 94.410156 111.199219 93.765625 C 108.820312 92.953125 106.167969 92.710938 103.671875 92.957031 C 102.5625 93.066406 101.398438 93.25 100.394531 93.746094 C 99.949219 93.96875 99.4375 94.398438 98.957031 94.539062 C 98.566406 94.652344 98.199219 94.574219 97.898438 94.046875 Z M 107.992188 86.488281 C 105.96875 86.746094 104.816406 89.695312 103.765625 91.144531 C 103.441406 91.597656 104.183594 92.015625 104.507812 91.578125 C 105.070312 90.824219 105.550781 90.015625 106.085938 89.242188 C 106.695312 88.363281 107.652344 87.757812 108.214844 86.875 C 108.3125 86.722656 108.1875 86.460938 107.992188 86.488281 Z M 115.144531 88.398438 C 114.371094 88.660156 113.898438 89.476562 113.433594 90.101562 C 113.195312 90.425781 112.960938 90.753906 112.703125 91.0625 C 112.5625 91.234375 112.34375 91.398438 112.199219 91.578125 C 112.113281 91.609375 112.042969 91.726562 112.089844 91.828125 C 112.09375 91.871094 112.101562 91.910156 112.109375 91.949219 C 112.148438 92.238281 112.511719 92.308594 112.726562 92.199219 C 113.292969 91.921875 113.679688 91.273438 114.042969 90.789062 C 114.523438 90.152344 115.105469 89.570312 115.53125 88.898438 C 115.6875 88.652344 115.429688 88.300781 115.144531 88.398438 Z M 121.230469 93.414062 C 120.773438 93.679688 120.542969 94.15625 120.28125 94.59375 C 120.175781 94.773438 120.066406 94.953125 119.945312 95.125 C 119.855469 95.253906 119.742188 95.3125 119.664062 95.417969 C 119.644531 95.417969 119.625 95.421875 119.605469 95.414062 C 119.398438 95.367188 119.289062 95.636719 119.464844 95.75 C 119.535156 95.800781 119.660156 95.828125 119.710938 95.890625 C 119.832031 96.039062 120.039062 96.019531 120.191406 95.953125 C 120.554688 95.796875 120.808594 95.453125 121.015625 95.132812 C 121.269531 94.746094 121.558594 94.351562 121.746094 93.929688 C 121.890625 93.605469 121.585938 93.203125 121.230469 93.414062 Z M 126.371094 99.367188 C 126.320312 99.21875 126.125 99.105469 125.976562 99.210938 C 125.496094 99.558594 125.414062 100.238281 125.253906 100.78125 C 125.15625 101.125 125.042969 101.464844 124.957031 101.8125 C 124.867188 102.160156 124.851562 102.511719 124.773438 102.851562 C 124.734375 103.019531 124.964844 103.195312 125.089844 103.035156 C 125.25 102.828125 125.425781 102.722656 125.539062 102.476562 C 125.691406 102.132812 125.824219 101.785156 125.9375 101.425781 C 126.128906 100.832031 126.574219 99.992188 126.371094 99.367188 Z M 128.28125 91.226562 C 128.84375 91.5625 129.195312 92.191406 129.5 92.75 C 129.773438 93.246094 130.042969 94.164062 130.675781 94.28125 C 130.800781 94.300781 130.933594 94.246094 130.96875 94.117188 C 131.132812 93.457031 130.433594 92.546875 130.121094 91.996094 C 129.746094 91.347656 129.253906 90.84375 128.503906 90.699219 C 128.1875 90.636719 127.988281 91.050781 128.28125 91.226562 Z M 103.789062 86.882812 C 109.476562 84.765625 116.132812 86.851562 120.695312 90.421875 C 123.121094 92.316406 125.328125 94.675781 126.917969 97.304688 C 128.246094 99.503906 128.492188 102.144531 130.570312 103.839844 C 130.769531 104.003906 131.097656 103.796875 130.945312 103.550781 C 129.15625 100.644531 128.28125 97.386719 126.199219 94.648438 C 124.21875 92.042969 121.679688 89.871094 118.984375 88.027344 C 115.054688 85.339844 107.929688 84.050781 103.675781 86.617188 C 103.542969 86.703125 103.632812 86.941406 103.789062 86.882812 Z M 103.789062 86.882812 " fill-opacity="1" fill-rule="nonzero"/><g clip-path="url(#d15d6c30a8)"><path fill="#000000" d="M 79.570312 194.910156 L 83.195312 178.195312 L 86.027344 157.546875 L 86.855469 153.082031 L 90.835938 153.816406 L 92.050781 147.261719 L 90.015625 158.234375 L 87.171875 178.972656 L 84.621094 190.730469 C 82.847656 191.910156 81.058594 193.234375 79.570312 194.910156 Z M 80.863281 203.289062 C 79.347656 202.34375 78.386719 205.925781 77.386719 206.929688 L 71.941406 239.589844 L 68.410156 260.085938 L 64.796875 280.523438 L 60.164062 300.777344 L 57.488281 319.378906 L 61.492188 319.949219 L 64.128906 301.597656 L 68.753906 281.375 L 72.398438 260.777344 L 75.933594 240.265625 L 80.542969 212.605469 C 80.394531 209.972656 81.917969 203.949219 80.863281 203.289062 Z M 60.96875 330.699219 C 60.515625 330.550781 60.03125 330.4375 59.542969 330.34375 C 59.003906 330.238281 58.457031 330.152344 57.941406 330.0625 C 57.242188 329.933594 56.402344 329.746094 55.554688 329.652344 C 54.480469 329.527344 53.394531 329.546875 52.546875 330.019531 C 50.96875 330.902344 51.183594 334.199219 50.972656 335.804688 C 50.664062 338.15625 48.375 344.574219 50.570312 346.167969 C 52.226562 347.359375 55.628906 347.304688 57.570312 347.414062 C 58.863281 347.488281 59.621094 347.351562 60.089844 346.984375 C 60.851562 346.386719 60.828125 345.183594 61.070312 343.324219 C 61.433594 340.546875 64.101562 331.75 60.96875 330.699219 Z M 145.347656 329.195312 C 145.125 328.390625 144.847656 327.804688 144.488281 327.367188 C 143.652344 329.484375 139.941406 330.738281 138 331.386719 C 134.464844 332.453125 130.546875 332.453125 127.019531 333.875 C 123.839844 334.941406 120.292969 335.652344 116.75 336.363281 C 113.203125 337.074219 108.609375 338.5 104.652344 337.074219 C 103.753906 336.660156 103.152344 336.230469 102.785156 335.789062 C 101.464844 336.222656 102.339844 338.355469 103.324219 339.039062 C 104.238281 339.675781 106.285156 339.886719 107.375 340.105469 C 110.496094 340.726562 113.582031 340.167969 116.496094 339.613281 C 119.253906 339.089844 130.8125 336.230469 133.765625 335.289062 C 136.902344 334.292969 140.421875 333.699219 143.300781 332.40625 C 145.113281 331.59375 145.882812 331.117188 145.347656 329.195312 Z M 111.617188 314.871094 C 111.625 314.234375 111.621094 313.597656 111.621094 312.964844 C 110.707031 313.058594 109.796875 313.203125 108.898438 313.4375 C 105.601562 314.082031 101.980469 314.332031 98.363281 314.578125 C 94.742188 314.828125 89.984375 315.644531 86.230469 313.730469 C 85.390625 313.207031 84.851562 312.703125 84.539062 312.21875 C 83.171875 312.476562 83.765625 314.695312 84.65625 315.5 C 85.484375 316.246094 87.496094 316.71875 88.550781 317.074219 C 91.578125 318.089844 94.71875 317.929688 97.691406 317.757812 C 99.789062 317.632812 106.925781 316.855469 111.683594 316.242188 C 111.640625 315.78125 111.613281 315.320312 111.617188 314.871094 Z M 102.617188 109.054688 C 103.535156 109.421875 104.859375 109.285156 105.625 108.628906 C 105.757812 108.515625 105.699219 108.234375 105.511719 108.207031 C 104.8125 108.105469 104.179688 108.507812 103.46875 108.511719 C 102.492188 108.515625 101.90625 107.460938 101.394531 106.800781 C 101.257812 106.621094 101.011719 106.6875 100.984375 106.914062 C 100.875 107.75 101.898438 108.765625 102.617188 109.054688 Z M 115.121094 110.414062 C 116.496094 110.644531 118.292969 109.78125 119.164062 108.757812 C 119.339844 108.546875 119.167969 108.292969 118.910156 108.328125 C 117.746094 108.484375 116.835938 109.316406 115.644531 109.441406 C 114.160156 109.597656 113.671875 108.191406 112.550781 107.6875 C 112.390625 107.617188 112.171875 107.699219 112.175781 107.902344 C 112.222656 109.25 113.933594 110.210938 115.121094 110.414062 Z M 106.914062 106.011719 C 107.375 105.675781 106.492188 103.980469 106.1875 103.539062 C 105.878906 103.101562 102.246094 101.753906 101.746094 101.992188 C 101.246094 102.234375 99.398438 103.699219 99.625 104.40625 C 99.851562 105.113281 101.585938 104.234375 102.046875 104.15625 C 102.507812 104.152344 106.453125 106.351562 106.914062 106.011719 Z M 99.203125 101.890625 C 100.449219 100.398438 101.699219 98.839844 103.941406 99.632812 C 106.835938 100.402344 108.957031 102.132812 112.234375 101.941406 C 111.847656 99.054688 114.546875 101.363281 115.894531 102.132812 C 116.261719 102.335938 116.617188 102.527344 116.960938 102.726562 C 115.445312 102.773438 112.359375 103.351562 112.039062 103.671875 C 111.644531 104.066406 110.515625 105.625 111.105469 106.035156 C 111.695312 106.441406 116.75 104.839844 117.339844 104.914062 C 117.890625 105.050781 119.84375 106.039062 120.351562 105.644531 C 120.722656 106.414062 120.917969 107.527344 121.484375 108.09375 C 122.640625 109.054688 122.257812 107.515625 123.21875 107.710938 C 124.761719 108.09375 123.027344 112.324219 125.535156 110.210938 C 126.1875 109.609375 126.730469 108.824219 127.164062 107.9375 C 126.726562 107.582031 126.339844 107.242188 126.070312 107.007812 C 124.402344 105.574219 124.023438 103.6875 122.644531 102.210938 C 120.589844 100.007812 119.460938 97.449219 116.648438 95.902344 C 114.878906 94.929688 113.097656 94.410156 111.199219 93.765625 C 108.820312 92.953125 106.167969 92.710938 103.671875 92.957031 C 102.5625 93.066406 101.398438 93.25 100.394531 93.746094 C 99.949219 93.96875 99.4375 94.398438 98.953125 94.539062 C 96.871094 97.3125 94.855469 100.039062 97.386719 103.671875 C 98.058594 103.246094 98.628906 102.574219 99.203125 101.890625 Z M 111.007812 304.015625 C 111.082031 304.183594 111.328125 304.320312 111.511719 304.300781 C 111.621094 304.292969 111.734375 304.28125 111.847656 304.269531 C 112.5625 304.203125 112.59375 303.125 111.847656 303.132812 C 112.199219 303.128906 109.878906 284.0625 109.632812 282.089844 C 108.714844 274.757812 106.957031 267.714844 105.363281 260.515625 C 103.515625 252.171875 104.230469 244.632812 105.417969 236.269531 C 106.464844 228.871094 107.140625 221.554688 106.960938 214.074219 C 106.957031 213.910156 106.710938 213.910156 106.707031 214.074219 C 106.472656 222.160156 105.882812 230.105469 104.582031 238.097656 C 104.019531 241.558594 103.414062 245 103.160156 248.5 C 102.886719 252.277344 103.496094 256.089844 104.214844 259.785156 C 105.746094 267.625 107.695312 275.207031 108.667969 283.160156 C 109.152344 287.105469 109.59375 291.058594 110.050781 295.007812 C 110.261719 296.839844 110.484375 298.667969 110.734375 300.496094 C 110.890625 301.667969 110.519531 302.921875 111.007812 304.015625 Z M 129.582031 194.378906 C 130.261719 194.378906 131.480469 194.152344 132.28125 194.390625 C 134.453125 186.675781 136.5 178.195312 135.113281 170.527344 C 135.066406 170.265625 135.445312 170.152344 135.511719 170.417969 C 136.625 174.617188 136.140625 179.109375 135.464844 183.34375 C 134.695312 188.207031 133.566406 193 132.261719 197.746094 C 129.242188 208.691406 126.550781 219.886719 124.890625 231.128906 C 123.945312 237.507812 123.355469 243.957031 123.371094 250.410156 C 125.578125 251.085938 127.734375 251.898438 129.863281 252.828125 C 130.277344 253.011719 130.175781 253.582031 129.863281 253.789062 C 127.914062 255.101562 125.808594 256.335938 123.644531 257.460938 C 124.179688 264.460938 125.421875 271.355469 126.082031 278.34375 C 126.46875 282.480469 126.960938 286.589844 128.015625 290.617188 C 128.359375 291.945312 128.679688 293.25 128.949219 294.558594 C 129.160156 294.410156 129.363281 294.25 129.546875 294.074219 C 129.925781 293.714844 130.171875 293.253906 130.6875 293.128906 C 130.792969 293.105469 130.898438 293.160156 130.929688 293.265625 C 131.171875 294.113281 130.171875 294.925781 129.140625 295.523438 C 129.398438 296.90625 129.597656 298.300781 129.703125 299.742188 C 130.214844 306.542969 131.136719 313.417969 131.054688 320.242188 C 131.082031 320.550781 130.921875 320.75 130.695312 320.847656 C 130.691406 320.847656 130.6875 320.851562 130.683594 320.855469 C 130.652344 320.867188 130.617188 320.878906 130.585938 320.886719 C 130.570312 320.890625 130.558594 320.894531 130.542969 320.898438 C 130.125 320.988281 129.613281 320.773438 129.652344 320.242188 C 130.191406 313.507812 128.925781 306.464844 128.488281 299.742188 C 128.40625 298.507812 128.230469 297.300781 128.007812 296.105469 C 127.765625 296.21875 127.554688 296.308594 127.398438 296.375 C 125.464844 297.195312 123.238281 298.039062 121.101562 297.800781 C 120.839844 297.769531 120.730469 297.355469 121.035156 297.304688 C 123.054688 296.964844 125.105469 296.519531 126.96875 295.640625 C 127.253906 295.503906 127.546875 295.359375 127.839844 295.210938 C 127.355469 292.835938 126.71875 290.5 126.285156 288.078125 C 125.699219 284.851562 125.386719 281.605469 125.078125 278.34375 C 124.4375 271.519531 123.1875 264.785156 122.679688 257.949219 C 120.78125 258.902344 118.847656 259.777344 116.945312 260.539062 C 116.65625 260.652344 116.394531 260.203125 116.636719 260.011719 C 118.429688 258.570312 120.488281 257.488281 122.582031 256.457031 C 122.566406 256.164062 122.542969 255.875 122.527344 255.585938 C 122.460938 254.152344 122.433594 252.71875 122.425781 251.289062 C 121.300781 250.953125 120.175781 250.636719 119.027344 250.367188 C 118.347656 250.207031 118.636719 249.171875 119.316406 249.324219 C 120.363281 249.5625 121.394531 249.832031 122.414062 250.125 C 122.433594 244.4375 122.878906 238.769531 123.636719 233.113281 C 124.433594 227.121094 125.542969 221.101562 126.867188 215.128906 C 125.601562 215.027344 125.789062 209.925781 125.808594 209.550781 C 125.898438 207.710938 126.015625 205.839844 126.347656 204.023438 C 126.921875 200.859375 128.863281 198.042969 129.121094 194.839844 C 129.140625 194.589844 129.316406 194.378906 129.582031 194.378906 Z M 123.382812 251.585938 C 123.398438 252.921875 123.4375 254.253906 123.511719 255.585938 C 123.519531 255.71875 123.53125 255.851562 123.539062 255.988281 C 125.191406 255.179688 126.84375 254.371094 128.390625 253.417969 C 126.742188 252.738281 125.074219 252.125 123.382812 251.585938 Z M 129.980469 195.65625 C 129.757812 198.515625 127.835938 201.171875 127.285156 204.007812 C 127.042969 205.253906 125.664062 213.242188 127.003906 214.535156 C 128.167969 209.355469 129.484375 204.21875 130.917969 199.171875 C 131.277344 197.90625 131.652344 196.605469 132.027344 195.28125 C 131.894531 195.289062 131.757812 195.289062 131.625 195.289062 C 131.097656 195.292969 130.574219 195.296875 130.050781 195.296875 C 129.605469 195.207031 129.582031 195.328125 129.980469 195.65625 Z M 103.789062 86.882812 C 109.476562 84.765625 116.132812 86.851562 120.695312 90.421875 C 123.121094 92.316406 125.328125 94.675781 126.917969 97.304688 C 128.246094 99.503906 128.492188 102.144531 130.570312 103.839844 C 130.769531 104.003906 131.097656 103.796875 130.945312 103.550781 C 129.15625 100.644531 128.28125 97.386719 126.199219 94.648438 C 124.21875 92.042969 121.679688 89.871094 118.984375 88.027344 C 115.054688 85.339844 107.929688 84.050781 103.675781 86.617188 C 103.542969 86.703125 103.632812 86.941406 103.789062 86.882812 Z M 107.992188 86.488281 C 105.96875 86.746094 104.816406 89.695312 103.765625 91.144531 C 103.441406 91.597656 104.183594 92.015625 104.507812 91.578125 C 105.070312 90.824219 105.550781 90.015625 106.085938 89.242188 C 106.695312 88.363281 107.652344 87.757812 108.214844 86.875 C 108.3125 86.722656 108.1875 86.460938 107.992188 86.488281 Z M 115.144531 88.398438 C 114.371094 88.660156 113.898438 89.476562 113.433594 90.101562 C 113.195312 90.425781 112.960938 90.753906 112.703125 91.0625 C 112.5625 91.234375 112.34375 91.398438 112.199219 91.578125 C 112.113281 91.609375 112.042969 91.726562 112.089844 91.828125 C 112.09375 91.871094 112.101562 91.910156 112.109375 91.949219 C 112.148438 92.238281 112.511719 92.308594 112.726562 92.199219 C 113.292969 91.921875 113.679688 91.273438 114.042969 90.789062 C 114.523438 90.152344 115.105469 89.570312 115.53125 88.898438 C 115.6875 88.652344 115.429688 88.300781 115.144531 88.398438 Z M 121.230469 93.414062 C 120.773438 93.679688 120.542969 94.15625 120.28125 94.59375 C 120.175781 94.773438 120.066406 94.953125 119.945312 95.125 C 119.855469 95.253906 119.742188 95.3125 119.664062 95.417969 C 119.644531 95.417969 119.625 95.421875 119.605469 95.414062 C 119.398438 95.367188 119.289062 95.636719 119.464844 95.75 C 119.535156 95.800781 119.660156 95.828125 119.710938 95.890625 C 119.832031 96.039062 120.039062 96.019531 120.191406 95.953125 C 120.554688 95.796875 120.808594 95.453125 121.015625 95.132812 C 121.269531 94.746094 121.558594 94.351562 121.746094 93.929688 C 121.890625 93.605469 121.585938 93.203125 121.230469 93.414062 Z M 125.976562 99.210938 C 125.496094 99.558594 125.414062 100.238281 125.253906 100.78125 C 125.15625 101.125 125.042969 101.464844 124.957031 101.8125 C 124.867188 102.160156 124.851562 102.511719 124.773438 102.851562 C 124.734375 103.019531 124.964844 103.195312 125.089844 103.035156 C 125.25 102.828125 125.425781 102.722656 125.539062 102.476562 C 125.691406 102.132812 125.824219 101.785156 125.9375 101.425781 C 126.128906 100.828125 126.574219 99.992188 126.371094 99.367188 C 126.320312 99.21875 126.125 99.105469 125.976562 99.210938 Z M 128.28125 91.226562 C 128.84375 91.5625 129.195312 92.191406 129.5 92.75 C 129.773438 93.246094 130.042969 94.164062 130.675781 94.28125 C 130.800781 94.300781 130.933594 94.246094 130.96875 94.117188 C 131.132812 93.457031 130.433594 92.546875 130.121094 91.996094 C 129.746094 91.347656 129.253906 90.84375 128.503906 90.699219 C 128.1875 90.636719 127.988281 91.050781 128.28125 91.226562 Z M 110.539062 329.53125 C 110.28125 329.265625 109.8125 329.613281 110.019531 329.929688 C 111.113281 331.601562 111.890625 333.09375 114.0625 332.148438 C 115.460938 331.542969 116.738281 330.707031 118.132812 330.09375 C 120.230469 329.175781 121.800781 327.414062 123.980469 326.605469 C 124.355469 326.46875 124.210938 325.886719 123.8125 325.996094 C 121.511719 326.636719 119.792969 328.285156 117.730469 329.410156 C 116.800781 329.917969 115.832031 330.378906 114.898438 330.882812 C 113.628906 331.566406 112.554688 332.230469 111.355469 330.546875 C 110.945312 329.972656 111.007812 330.007812 110.539062 329.53125 Z M 97.886719 309.605469 C 100.984375 308.925781 103.9375 307.132812 106.886719 306 C 107.078125 305.925781 107.058594 305.632812 106.835938 305.628906 C 105.121094 305.601562 103.617188 306.363281 102.09375 307.078125 C 100.984375 307.605469 99.878906 308.101562 98.726562 308.535156 C 96.773438 309.277344 95.878906 307.902344 94.917969 306.550781 C 94.722656 306.277344 94.3125 306.511719 94.464844 306.816406 C 95.121094 308.132812 96.0625 310.007812 97.886719 309.605469 Z M 135.988281 328.75 C 136.5 327.75 136.707031 326.613281 137.21875 325.601562 C 137.507812 325.019531 137.886719 324.496094 138.339844 324.03125 C 138.746094 323.605469 139.296875 323.394531 139.652344 322.921875 C 139.734375 322.8125 139.617188 322.691406 139.511719 322.679688 C 138.367188 322.527344 137.417969 323.882812 136.890625 324.730469 C 136.207031 325.820312 135.589844 327.328125 135.476562 328.609375 C 135.453125 328.882812 135.871094 328.984375 135.988281 328.75 Z M 104.304688 137.007812 C 105.367188 139.191406 105.90625 140.386719 105.027344 142.789062 C 103.804688 146.136719 103.539062 149.421875 104.15625 152.957031 C 104.183594 153.128906 104.476562 153.132812 104.503906 152.957031 C 104.769531 151.246094 104.714844 149.535156 104.773438 147.808594 C 104.855469 145.410156 105.863281 143.363281 106.511719 141.101562 C 106.875 139.828125 106.394531 139.355469 105.773438 138.210938 C 104.785156 136.390625 103.789062 134.65625 103.1875 132.65625 C 103.109375 132.386719 102.710938 132.5 102.769531 132.769531 C 103.101562 134.285156 103.628906 135.617188 104.304688 137.007812 Z M 110.933594 135.335938 C 110.390625 134.605469 110.378906 133.71875 109.976562 132.953125 C 109.945312 132.894531 109.886719 132.859375 109.820312 132.835938 C 109.695312 132.792969 109.535156 132.820312 109.476562 132.953125 C 109.4375 133.039062 109.414062 133.132812 109.390625 133.226562 C 109.140625 134.402344 110.144531 136.390625 111.226562 136.707031 C 111.359375 136.746094 111.535156 136.707031 111.628906 136.601562 C 112.050781 136.117188 111.179688 135.671875 110.933594 135.335938 Z M 111.695312 131.460938 C 111.925781 132.65625 112.601562 134.257812 113.816406 134.761719 C 113.851562 134.777344 113.882812 134.796875 113.917969 134.8125 C 114.050781 134.855469 114.183594 134.714844 114.140625 134.589844 C 114.132812 134.554688 114.113281 134.519531 114.101562 134.484375 C 113.914062 133.964844 113.585938 133.488281 113.296875 133.023438 C 112.933594 132.4375 112.660156 131.796875 112.347656 131.1875 C 112.152344 130.808594 111.625 131.085938 111.695312 131.460938 Z M 111.695312 131.460938 " fill-opacity="1" fill-rule="nonzero"/></g></svg>