<svg xmlns="http://www.w3.org/2000/svg" xmlns:xlink="http://www.w3.org/1999/xlink" width="500" zoomAndPan="magnify" viewBox="0 0 375 374.999991" height="500" preserveAspectRatio="xMidYMid meet" version="1.0"><defs><filter x="0%" y="0%" width="100%" height="100%" id="52631d0cd6"><feColorMatrix values="0 0 0 0 1 0 0 0 0 1 0 0 0 0 1 0 0 0 1 0" color-interpolation-filters="sRGB"/></filter><mask id="6ab37e68b2"><g filter="url(#52631d0cd6)"><rect x="-37.5" width="450" fill="#000000" y="-37.499999" height="449.999989" fill-opacity="0.149"/></g></mask><clipPath id="7925a9ff17"><path d="M 1 4 L 303 4 L 303 57 L 1 57 Z M 1 4 " clip-rule="nonzero"/></clipPath><clipPath id="1d79ea875e"><path d="M 0.433594 7.972656 L 301.847656 0.726562 L 303.089844 52.460938 L 1.675781 59.707031 Z M 0.433594 7.972656 " clip-rule="nonzero"/></clipPath><clipPath id="e43846f19d"><rect x="0" width="305" y="0" height="62"/></clipPath><clipPath id="fdd8737b26"><path d="M 121 48 L 244 48 L 244 319.429688 L 121 319.429688 Z M 121 48 " clip-rule="nonzero"/></clipPath><clipPath id="6e25b8b6c6"><path d="M 175 256 L 190 256 L 190 270 L 175 270 Z M 175 256 " clip-rule="nonzero"/></clipPath><clipPath id="d107275bb1"><path d="M 191.484375 253.726562 L 173.824219 257.003906 L 173.824219 274.964844 L 191.484375 271.683594 Z M 191.484375 253.726562 " clip-rule="nonzero"/></clipPath><clipPath id="dfb97b76d1"><path d="M 185 268 L 188 268 L 188 271 L 185 271 Z M 185 268 " clip-rule="nonzero"/></clipPath><clipPath id="b9dae630a8"><path d="M 191.484375 253.726562 L 173.824219 257.003906 L 173.824219 274.964844 L 191.484375 271.683594 Z M 191.484375 253.726562 " clip-rule="nonzero"/></clipPath><clipPath id="bb2e5cfe05"><path d="M 177 270 L 180 270 L 180 273 L 177 273 Z M 177 270 " clip-rule="nonzero"/></clipPath><clipPath id="73973a161d"><path d="M 191.484375 253.726562 L 173.824219 257.003906 L 173.824219 274.964844 L 191.484375 271.683594 Z M 191.484375 253.726562 " clip-rule="nonzero"/></clipPath><clipPath id="fc3fbe1198"><path d="M 115.066406 209 L 172 209 L 172 255 L 115.066406 255 Z M 115.066406 209 " clip-rule="nonzero"/></clipPath><clipPath id="351d0051ed"><path d="M 115.066406 224 L 127 224 L 127 240 L 115.066406 240 Z M 115.066406 224 " clip-rule="nonzero"/></clipPath><clipPath id="104bc36d2c"><path d="M 222 114 L 325.066406 114 L 325.066406 197 L 222 197 Z M 222 114 " clip-rule="nonzero"/></clipPath><clipPath id="327bf96c53"><path d="M 49 81 L 151 81 L 151 347.691406 L 49 347.691406 Z M 49 81 " clip-rule="nonzero"/></clipPath><clipPath id="b1295df81e"><path d="M 49 85 L 146 85 L 146 347.691406 L 49 347.691406 Z M 49 85 " clip-rule="nonzero"/></clipPath><clipPath id="8711669a5c"><path d="M 145 136 L 174 136 L 174 168 L 145 168 Z M 145 136 " clip-rule="nonzero"/></clipPath><clipPath id="6f1a06d226"><path d="M 155.160156 136.417969 L 173.871094 144.160156 L 164.40625 167.03125 L 145.695312 159.285156 Z M 155.160156 136.417969 " clip-rule="nonzero"/></clipPath><clipPath id="f9641bc9e8"><path d="M 146 148 L 174 148 L 174 178 L 146 178 Z M 146 148 " clip-rule="nonzero"/></clipPath><clipPath id="e177661531"><path d="M 155.160156 148.414062 L 173.175781 155.875 L 164.285156 177.355469 L 146.265625 169.898438 Z M 155.160156 148.414062 " clip-rule="nonzero"/></clipPath><clipPath id="13a4216e6a"><path d="M 185 124 L 224 124 L 224 161 L 185 161 Z M 185 124 " clip-rule="nonzero"/></clipPath><clipPath id="466078293a"><path d="M 195.78125 124.472656 L 223.5 135.945312 L 213.460938 160.199219 L 185.742188 148.726562 Z M 195.78125 124.472656 " clip-rule="nonzero"/></clipPath><clipPath id="948a61cea2"><path d="M 196 140 L 221 140 L 221 167 L 196 167 Z M 196 140 " clip-rule="nonzero"/></clipPath><clipPath id="c8019e9b69"><path d="M 204.421875 140.933594 L 220.359375 147.53125 L 212.328125 166.933594 L 196.386719 160.335938 Z M 204.421875 140.933594 " clip-rule="nonzero"/></clipPath><clipPath id="4ce2d14c5e"><path d="M 149 197 L 171 197 L 171 212 L 149 212 Z M 149 197 " clip-rule="nonzero"/></clipPath><clipPath id="5dd7b8d566"><path d="M 149.363281 199.996094 L 168.675781 197.316406 L 170.222656 208.460938 L 150.90625 211.140625 Z M 149.363281 199.996094 " clip-rule="nonzero"/></clipPath><clipPath id="b2a7ce803d"><path d="M 152 192 L 174 192 L 174 207 L 152 207 Z M 152 192 " clip-rule="nonzero"/></clipPath><clipPath id="ef8d27796e"><path d="M 152.371094 195.648438 L 171.683594 192.96875 L 173.230469 204.109375 L 153.917969 206.789062 Z M 152.371094 195.648438 " clip-rule="nonzero"/></clipPath><clipPath id="2eb340327a"><path d="M 146 199 L 160 199 L 160 220 L 146 220 Z M 146 199 " clip-rule="nonzero"/></clipPath><clipPath id="cb5a4aae4d"><path d="M 159.804688 201.375 L 157.292969 219.957031 L 146.886719 218.550781 L 149.398438 199.96875 Z M 159.804688 201.375 " clip-rule="nonzero"/></clipPath><clipPath id="c86f6d0457"><path d="M 156 203 L 170 203 L 170 224 L 156 224 Z M 156 203 " clip-rule="nonzero"/></clipPath><clipPath id="0836b1a5f0"><path d="M 169.183594 204.90625 L 166.671875 223.488281 L 156.265625 222.082031 L 158.777344 203.5 Z M 169.183594 204.90625 " clip-rule="nonzero"/></clipPath><clipPath id="19153827a1"><path d="M 163 204 L 177 204 L 177 225 L 163 225 Z M 163 204 " clip-rule="nonzero"/></clipPath><clipPath id="e3f92f75d3"><path d="M 176.621094 205.726562 L 174.109375 224.308594 L 163.703125 222.902344 L 166.214844 204.320312 Z M 176.621094 205.726562 " clip-rule="nonzero"/></clipPath><clipPath id="837a443512"><path d="M 163 204 L 176 204 L 176 232 L 163 232 Z M 163 204 " clip-rule="nonzero"/></clipPath><clipPath id="9fea1922b5"><path d="M 173.523438 204.542969 L 175.78125 230.695312 L 165.320312 231.597656 L 163.0625 205.445312 Z M 173.523438 204.542969 " clip-rule="nonzero"/></clipPath><clipPath id="e6c1f04f0a"><path d="M 142 213 L 158 213 L 158 234 L 142 234 Z M 142 213 " clip-rule="nonzero"/></clipPath><clipPath id="fe94ad9f12"><path d="M 157.324219 215.570312 L 152.925781 233.796875 L 142.71875 231.332031 L 147.117188 213.105469 Z M 157.324219 215.570312 " clip-rule="nonzero"/></clipPath><clipPath id="41e8938743"><path d="M 151 214 L 164 214 L 164 235 L 151 235 Z M 151 214 " clip-rule="nonzero"/></clipPath><clipPath id="3aed224eb2"><path d="M 161.675781 214.480469 L 163.402344 233.152344 L 152.945312 234.117188 L 151.222656 215.445312 Z M 161.675781 214.480469 " clip-rule="nonzero"/></clipPath><clipPath id="91f4eba645"><path d="M 159 213 L 172 213 L 172 234 L 159 234 Z M 159 213 " clip-rule="nonzero"/></clipPath><clipPath id="c4e5324a45"><path d="M 170.089844 213.488281 L 171.8125 232.160156 L 161.359375 233.125 L 159.632812 214.457031 Z M 170.089844 213.488281 " clip-rule="nonzero"/></clipPath><clipPath id="6eb30a8dbd"><path d="M 188 193 L 201 193 L 201 214 L 188 214 Z M 188 193 " clip-rule="nonzero"/></clipPath><clipPath id="16cc52c0a0"><path d="M 198.90625 193.730469 L 200.632812 212.398438 L 190.175781 213.367188 L 188.453125 194.695312 Z M 198.90625 193.730469 " clip-rule="nonzero"/></clipPath><clipPath id="d2b7541d76"><path d="M 195 192 L 209 192 L 209 213 L 195 213 Z M 195 192 " clip-rule="nonzero"/></clipPath><clipPath id="88aaacf7a7"><path d="M 206.4375 192.96875 L 208.164062 211.636719 L 197.707031 212.601562 L 195.984375 193.933594 Z M 206.4375 192.96875 " clip-rule="nonzero"/></clipPath><clipPath id="c7391fd3a2"><path d="M 204 191 L 218 191 L 218 212 L 204 212 Z M 204 191 " clip-rule="nonzero"/></clipPath><clipPath id="704a3a581c"><path d="M 216.191406 191.640625 L 217.914062 210.3125 L 205.964844 211.417969 L 204.242188 192.746094 Z M 216.191406 191.640625 " clip-rule="nonzero"/></clipPath><clipPath id="6b6e7e1586"><path d="M 211 190 L 225 190 L 225 211 L 211 211 Z M 211 190 " clip-rule="nonzero"/></clipPath><clipPath id="ea0f14db92"><path d="M 222.957031 190.230469 L 224.679688 208.902344 L 212.730469 210.007812 L 211.007812 191.335938 Z M 222.957031 190.230469 " clip-rule="nonzero"/></clipPath><clipPath id="7b66e58581"><path d="M 224.679688 258 L 270.429688 258 L 270.429688 319 L 224.679688 319 Z M 224.679688 258 " clip-rule="nonzero"/></clipPath><clipPath id="bda13416be"><path d="M 224.679688 264 L 270.429688 264 L 270.429688 314 L 224.679688 314 Z M 224.679688 264 " clip-rule="nonzero"/></clipPath><clipPath id="08c08a50e0"><path d="M 257 234.367188 L 265 234.367188 L 265 241 L 257 241 Z M 257 234.367188 " clip-rule="nonzero"/></clipPath></defs><g mask="url(#6ab37e68b2)"><g transform="matrix(1, 0, 0, 1, 22, 289)"><g clip-path="url(#e43846f19d)"><g clip-path="url(#7925a9ff17)"><g clip-path="url(#1d79ea875e)"><path fill="#000000" d="M 151.140625 4.347656 C 67.921875 6.347656 0.742188 19.550781 1.085938 33.835938 C 1.429688 48.125 69.167969 58.085938 152.382812 56.085938 C 235.597656 54.085938 302.78125 40.882812 302.4375 26.597656 C 302.09375 12.308594 234.355469 2.351562 151.140625 4.347656 " fill-opacity="1" fill-rule="nonzero"/></g></g></g></g></g><g clip-path="url(#fdd8737b26)"><path fill="#000000" d="M 243.378906 63.578125 C 243.378906 53.347656 235.253906 46.554688 225.25 48.429688 L 140.140625 64.203125 C 130.136719 66.078125 122.007812 75.839844 122.007812 86.066406 L 122.007812 144.398438 C 121.695312 144.476562 122.007812 144.632812 122.007812 145.023438 L 122.007812 173.996094 C 122.007812 174.308594 121.695312 174.621094 122.007812 174.621094 L 122.007812 303.78125 C 122.007812 314.007812 130.136719 320.804688 140.140625 318.929688 L 225.25 303.15625 C 235.253906 301.28125 243.378906 291.519531 243.378906 281.289062 L 243.378906 159.238281 C 243.691406 159.160156 243.378906 159.003906 243.378906 158.613281 L 243.378906 140.339844 C 243.378906 140.027344 243.691406 139.714844 243.378906 139.714844 L 243.378906 134.640625 C 243.691406 134.5625 243.378906 134.40625 243.378906 134.015625 L 243.378906 115.898438 C 243.378906 115.585938 243.691406 115.273438 243.378906 115.273438 L 243.378906 107.230469 C 243.691406 107.152344 243.378906 106.996094 243.378906 106.605469 L 243.378906 98.015625 C 243.378906 97.703125 243.691406 97.390625 243.378906 97.390625 Z M 243.378906 63.578125 " fill-opacity="1" fill-rule="evenodd"/></g><path fill="#004aad" d="M 225.25 54.363281 C 232.046875 53.113281 237.519531 57.722656 237.519531 64.671875 L 237.519531 282.304688 C 237.519531 289.253906 232.046875 295.894531 225.25 297.140625 L 140.140625 312.917969 C 133.339844 314.164062 127.867188 309.558594 127.867188 302.609375 L 127.867188 84.972656 C 127.867188 78.023438 133.339844 71.386719 140.140625 70.136719 L 158.582031 66.703125 C 159.753906 66.46875 159.988281 67.171875 159.988281 68.339844 C 159.988281 72.011719 160.851562 75.371094 166.164062 74.433594 L 199.144531 68.339844 C 204.460938 67.328125 205.320312 63.65625 205.320312 59.984375 C 205.320312 58.816406 205.632812 58.035156 206.726562 57.800781 Z M 225.25 54.363281 " fill-opacity="1" fill-rule="evenodd"/><path fill="#fffadc" d="M 230.640625 124.019531 C 230.640625 120.347656 230.640625 118.550781 229.546875 117.617188 C 228.453125 116.679688 226.65625 116.992188 223.058594 117.695312 L 192.1875 123.394531 C 188.59375 124.097656 186.796875 124.410156 185.703125 125.738281 C 184.609375 127.0625 184.609375 128.9375 184.609375 132.53125 L 184.609375 166.890625 C 184.609375 170.558594 184.609375 172.355469 185.703125 173.292969 C 186.796875 174.230469 188.59375 173.917969 192.1875 173.214844 L 223.058594 167.515625 C 226.65625 166.8125 228.453125 166.5 229.546875 165.171875 C 230.640625 163.84375 230.640625 161.96875 230.640625 158.378906 Z M 230.640625 124.019531 " fill-opacity="1" fill-rule="nonzero"/><path fill="#000000" d="M 207.585938 135.34375 L 207.585938 157.207031 L 199.457031 158.691406 L 199.457031 144.554688 L 197.894531 146.976562 C 197.738281 147.210938 197.347656 147.289062 197.191406 147.132812 L 193.050781 143.699219 C 192.972656 143.621094 192.972656 143.542969 193.050781 143.464844 L 198.050781 137.371094 C 199.300781 135.886719 200.941406 134.796875 202.738281 134.484375 L 203.601562 134.875 C 204.851562 135.574219 206.179688 135.730469 207.585938 135.34375 Z M 207.585938 135.34375 L 207.585938 157.207031 L 215.714844 155.722656 L 215.714844 141.589844 L 217.277344 143.386719 C 217.433594 143.621094 217.824219 143.542969 217.980469 143.308594 L 222.042969 138.464844 C 222.121094 138.386719 222.121094 138.230469 222.042969 138.152344 L 217.121094 133.9375 C 215.871094 132.921875 214.230469 132.453125 212.429688 132.765625 L 211.570312 133.546875 C 210.398438 134.5625 209.070312 135.1875 207.585938 135.34375 Z M 207.585938 135.34375 " fill-opacity="1" fill-rule="evenodd"/><path fill="#fffadc" d="M 180.777344 133.234375 C 180.777344 129.5625 180.777344 127.765625 179.683594 126.832031 C 178.589844 125.894531 176.792969 126.207031 173.199219 126.910156 L 142.328125 132.609375 C 138.730469 133.3125 136.933594 133.625 135.839844 134.953125 C 134.746094 136.277344 134.746094 138.152344 134.746094 141.746094 L 134.746094 176.105469 C 134.746094 179.773438 134.746094 181.570312 135.839844 182.507812 C 136.933594 183.445312 138.730469 183.132812 142.328125 182.429688 L 173.199219 176.730469 C 176.792969 176.027344 178.589844 175.714844 179.683594 174.386719 C 180.777344 173.058594 180.777344 171.183594 180.777344 167.59375 Z M 180.777344 133.234375 " fill-opacity="1" fill-rule="nonzero"/><path fill="#000000" d="M 162.414062 141.589844 C 162.414062 141.199219 162.101562 140.964844 161.710938 141.042969 C 161.320312 141.121094 161.007812 141.511719 161.007812 141.824219 L 161.007812 144.085938 C 160.535156 144.242188 160.066406 144.476562 159.675781 144.867188 L 157.722656 146.742188 L 157.722656 163.921875 L 157.722656 146.742188 L 155.691406 145.570312 C 155.300781 145.335938 154.832031 145.257812 154.363281 145.257812 L 154.363281 142.996094 C 154.363281 142.605469 154.050781 142.371094 153.660156 142.449219 C 153.269531 142.527344 152.957031 142.917969 152.957031 143.230469 L 152.957031 145.648438 C 152.566406 145.882812 152.175781 146.195312 151.863281 146.585938 C 150.925781 147.757812 150.769531 149.320312 151.550781 150.257812 L 152.800781 151.976562 C 153.347656 152.675781 153.425781 153.691406 153.113281 154.707031 L 149.125 166.96875 C 149.046875 167.125 148.96875 167.203125 148.96875 167.28125 C 148.96875 168.296875 152.878906 168.453125 157.644531 167.515625 C 162.414062 166.65625 166.320312 165.09375 166.320312 164.078125 C 166.320312 164 166.242188 163.84375 166.164062 163.765625 L 162.179688 152.910156 C 161.867188 152.054688 161.945312 150.960938 162.492188 150.023438 L 163.742188 147.914062 C 164.445312 146.664062 164.367188 145.179688 163.429688 144.320312 C 163.117188 144.007812 162.726562 143.855469 162.335938 143.777344 L 162.335938 141.589844 Z M 162.414062 141.589844 " fill-opacity="1" fill-rule="evenodd"/><path fill="#fffadc" d="M 230.640625 178.679688 C 230.640625 175.011719 230.640625 173.214844 229.546875 172.277344 C 228.453125 171.339844 226.65625 171.652344 223.058594 172.355469 L 192.1875 178.054688 C 188.59375 178.757812 186.796875 179.070312 185.703125 180.398438 C 184.609375 181.726562 184.609375 183.601562 184.609375 187.191406 L 184.609375 221.550781 C 184.609375 225.222656 184.609375 227.019531 185.703125 227.957031 C 186.796875 228.890625 188.59375 228.582031 192.1875 227.878906 L 223.058594 222.175781 C 226.65625 221.472656 228.453125 221.160156 229.546875 219.835938 C 230.640625 218.507812 230.640625 216.632812 230.640625 213.039062 Z M 230.640625 178.679688 " fill-opacity="1" fill-rule="nonzero"/><path fill="#000000" d="M 203.210938 197.34375 L 204.304688 200.9375 L 201.878906 202.109375 L 200.785156 198.4375 L 197.347656 200 C 194.847656 201.171875 193.050781 203.746094 193.050781 206.402344 L 193.050781 208.980469 L 222.121094 203.589844 L 222.121094 193.050781 L 213.210938 192.738281 L 207.117188 195.46875 L 208.210938 198.984375 L 205.789062 200.15625 L 204.695312 196.640625 Z M 216.652344 200.3125 C 215.636719 200.46875 214.855469 199.84375 214.855469 198.828125 C 214.855469 197.8125 215.636719 196.796875 216.652344 196.640625 C 217.667969 196.484375 218.449219 197.109375 218.449219 198.125 C 218.527344 199.140625 217.667969 200.15625 216.652344 200.3125 Z M 216.652344 200.3125 " fill-opacity="1" fill-rule="evenodd"/><path fill="#fffadc" d="M 180.777344 187.894531 C 180.777344 184.226562 180.777344 182.429688 179.683594 181.492188 C 178.589844 180.554688 176.792969 180.867188 173.199219 181.570312 L 142.328125 187.269531 C 138.730469 187.972656 136.933594 188.285156 135.839844 189.613281 C 134.746094 190.941406 134.746094 192.816406 134.746094 196.40625 L 134.746094 230.765625 C 134.746094 234.4375 134.746094 236.234375 135.839844 237.171875 C 136.933594 238.105469 138.730469 237.792969 142.328125 237.09375 L 173.199219 231.390625 C 176.792969 230.6875 178.589844 230.375 179.683594 229.046875 C 180.777344 227.722656 180.777344 225.847656 180.777344 222.253906 Z M 180.777344 187.894531 " fill-opacity="1" fill-rule="nonzero"/><path fill="#000000" d="M 166.945312 197.96875 C 166.945312 197.421875 166.554688 197.109375 166.007812 197.1875 L 150.457031 200.078125 C 149.90625 200.15625 149.515625 200.703125 149.515625 201.25 L 149.515625 218.898438 C 149.515625 218.976562 149.59375 219.054688 149.671875 219.054688 L 157.019531 217.726562 C 157.097656 217.726562 157.175781 217.648438 157.175781 217.492188 L 158.035156 208.277344 C 158.035156 208.042969 158.347656 207.964844 158.425781 208.199219 L 159.285156 217.023438 C 159.285156 217.101562 159.363281 217.179688 159.441406 217.179688 L 166.789062 215.851562 C 166.867188 215.851562 166.945312 215.695312 166.945312 215.617188 Z M 167.257812 216.398438 C 167.257812 216.320312 167.179688 216.242188 167.101562 216.242188 L 158.816406 217.804688 C 158.738281 217.804688 158.660156 217.960938 158.660156 218.039062 L 158.660156 219.757812 C 158.660156 219.835938 158.738281 219.914062 158.816406 219.914062 L 167.101562 218.351562 C 167.179688 218.351562 167.257812 218.195312 167.257812 218.117188 Z M 157.488281 218.039062 C 157.566406 218.039062 157.644531 218.117188 157.644531 218.195312 L 157.644531 219.914062 C 157.644531 219.992188 157.566406 220.148438 157.488281 220.148438 L 149.203125 221.707031 C 149.125 221.707031 149.046875 221.628906 149.046875 221.550781 L 149.046875 219.835938 C 149.046875 219.757812 149.125 219.601562 149.203125 219.601562 Z M 157.488281 218.039062 " fill-opacity="1" fill-rule="evenodd"/><path fill="#000000" d="M 228.0625 255.988281 C 228.0625 249.429688 222.824219 245.058594 216.339844 246.226562 L 148.96875 258.722656 C 142.484375 259.894531 137.246094 266.21875 137.246094 272.777344 C 137.246094 279.339844 142.484375 283.710938 148.96875 282.539062 L 216.339844 270.046875 C 222.824219 268.796875 228.0625 262.550781 228.0625 255.988281 Z M 228.0625 255.988281 " fill-opacity="1" fill-rule="nonzero"/><g clip-path="url(#6e25b8b6c6)"><g clip-path="url(#d107275bb1)"><path fill="#fffadc" d="M 176.246094 261.222656 C 176.480469 260.910156 176.871094 260.675781 177.261719 260.597656 L 187.34375 258.722656 L 187.421875 258.019531 C 187.421875 257.550781 187.734375 257.160156 188.046875 256.847656 L 188.90625 256.300781 C 189.140625 256.144531 189.375 256.222656 189.453125 256.457031 C 189.53125 256.691406 189.453125 256.925781 189.21875 257.082031 L 188.4375 257.628906 C 188.359375 257.707031 188.28125 257.863281 188.28125 257.941406 L 187.8125 266.296875 C 187.734375 267.15625 187.03125 267.9375 186.171875 268.09375 L 177.027344 269.8125 C 176.792969 269.890625 176.636719 269.65625 176.636719 269.5 C 176.636719 269.265625 176.792969 269.03125 177.027344 269.03125 L 186.171875 267.3125 C 186.640625 267.234375 186.953125 266.84375 187.03125 266.453125 L 187.03125 266.0625 L 177.964844 267.078125 C 177.339844 267.15625 176.792969 266.765625 176.714844 266.140625 L 176.089844 262.550781 C 175.855469 262.003906 176.011719 261.535156 176.246094 261.222656 Z M 176.246094 261.222656 " fill-opacity="1" fill-rule="nonzero"/></g></g><g clip-path="url(#dfb97b76d1)"><g clip-path="url(#b9dae630a8)"><path fill="#fffadc" d="M 187.1875 269.578125 C 187.1875 269.8125 187.109375 270.125 186.875 270.359375 C 186.71875 270.59375 186.484375 270.75 186.171875 270.75 C 185.9375 270.828125 185.703125 270.75 185.46875 270.59375 C 185.3125 270.4375 185.15625 270.203125 185.15625 269.96875 C 185.15625 269.734375 185.234375 269.421875 185.46875 269.1875 C 185.625 268.953125 185.859375 268.796875 186.171875 268.796875 C 186.40625 268.71875 186.640625 268.796875 186.875 268.953125 C 187.109375 269.109375 187.1875 269.34375 187.1875 269.578125 Z M 187.1875 269.578125 " fill-opacity="1" fill-rule="nonzero"/></g></g><g clip-path="url(#bb2e5cfe05)"><g clip-path="url(#73973a161d)"><path fill="#fffadc" d="M 179.449219 270.984375 C 179.449219 271.214844 179.371094 271.527344 179.136719 271.761719 C 178.980469 271.996094 178.746094 272.152344 178.433594 272.152344 C 178.199219 272.230469 177.964844 272.152344 177.730469 271.996094 C 177.496094 271.839844 177.417969 271.605469 177.417969 271.371094 C 177.417969 271.140625 177.496094 270.828125 177.730469 270.59375 C 177.886719 270.359375 178.121094 270.203125 178.433594 270.203125 C 178.667969 270.125 178.902344 270.203125 179.136719 270.359375 C 179.371094 270.515625 179.449219 270.75 179.449219 270.984375 Z M 179.449219 270.984375 " fill-opacity="1" fill-rule="nonzero"/></g></g><g clip-path="url(#fc3fbe1198)"><path fill="#ebf3f5" d="M 72.535156 234.59375 C 72.535156 231.15625 72.535156 229.4375 73.628906 228.113281 C 74.722656 226.785156 76.363281 226.550781 79.804688 225.925781 L 164.210938 210.308594 C 167.648438 209.683594 169.289062 209.371094 170.382812 210.230469 C 171.480469 211.089844 171.480469 212.804688 171.480469 216.320312 L 171.480469 230.0625 C 171.480469 233.5 171.480469 235.21875 170.382812 236.546875 C 169.289062 237.792969 167.648438 238.105469 164.210938 238.730469 L 79.804688 254.347656 C 76.363281 254.972656 74.722656 255.285156 73.628906 254.425781 C 72.535156 253.570312 72.535156 251.773438 72.535156 248.335938 Z M 72.535156 234.59375 " fill-opacity="1" fill-rule="nonzero"/></g><g clip-path="url(#351d0051ed)"><path fill="#ebf3f5" d="M 119.039062 224.597656 L 120.757812 229.59375 L 126.226562 228.582031 L 121.773438 232.71875 L 123.492188 237.714844 L 119.039062 235.296875 L 114.582031 239.433594 L 116.300781 233.8125 L 111.847656 231.390625 L 117.316406 230.375 Z M 119.039062 224.597656 " fill-opacity="1" fill-rule="nonzero"/></g><path fill="#ebf3f5" d="M 133.730469 221.863281 L 135.449219 226.863281 L 140.921875 225.847656 L 136.464844 229.984375 L 138.183594 234.984375 L 133.730469 232.5625 L 129.277344 236.703125 L 130.996094 231.078125 L 126.539062 228.660156 L 132.011719 227.644531 Z M 133.730469 221.863281 " fill-opacity="1" fill-rule="nonzero"/><path fill="#ebf3f5" d="M 148.421875 219.210938 L 150.144531 224.207031 L 155.613281 223.191406 L 151.160156 227.332031 L 152.878906 232.328125 L 148.421875 229.90625 L 143.96875 234.046875 L 145.6875 228.425781 L 141.234375 226.003906 L 146.703125 224.988281 Z M 148.421875 219.210938 " fill-opacity="1" fill-rule="nonzero"/><path fill="#000000" d="M 136.386719 126.597656 L 148.96875 124.253906 L 148.65625 128.546875 C 148.578125 130.03125 147.796875 131.515625 146.546875 132.765625 C 145.296875 134.015625 143.65625 134.875 142.015625 135.1875 C 140.375 135.496094 138.808594 135.1875 137.714844 134.40625 C 136.621094 133.625 136.074219 132.296875 136.152344 130.8125 Z M 136.386719 126.597656 " fill-opacity="1" fill-rule="nonzero"/><path fill="#004aad" d="M 148.890625 124.332031 L 161.398438 121.988281 L 161.085938 126.285156 C 161.007812 127.765625 160.222656 129.25 158.972656 130.5 C 157.722656 131.75 156.082031 132.609375 154.441406 132.921875 C 152.800781 133.234375 151.238281 132.921875 150.144531 132.140625 C 149.046875 131.359375 148.5 130.03125 148.578125 128.546875 Z M 148.890625 124.332031 " fill-opacity="1" fill-rule="nonzero"/><path fill="#000000" d="M 161.476562 121.988281 L 173.980469 119.644531 L 173.667969 123.941406 C 173.589844 125.425781 172.808594 126.910156 171.558594 128.15625 C 170.304688 129.40625 168.664062 130.265625 167.023438 130.578125 C 165.382812 130.890625 163.820312 130.578125 162.726562 129.796875 C 161.632812 129.015625 161.085938 127.6875 161.164062 126.207031 Z M 161.476562 121.988281 " fill-opacity="1" fill-rule="nonzero"/><path fill="#004aad" d="M 173.980469 119.644531 L 186.484375 117.304688 L 186.171875 121.597656 C 186.09375 123.082031 185.3125 124.566406 184.0625 125.816406 C 182.8125 127.0625 181.167969 127.921875 179.527344 128.234375 C 177.886719 128.546875 176.324219 128.234375 175.230469 127.453125 C 174.136719 126.675781 173.589844 125.347656 173.667969 123.863281 Z M 173.980469 119.644531 " fill-opacity="1" fill-rule="nonzero"/><path fill="#000000" d="M 186.5625 117.304688 L 199.144531 114.960938 L 198.832031 119.253906 C 198.753906 120.738281 197.972656 122.222656 196.722656 123.472656 C 195.472656 124.722656 193.832031 125.582031 192.1875 125.894531 C 190.546875 126.207031 188.984375 125.894531 187.890625 125.113281 C 186.796875 124.332031 186.25 123.003906 186.328125 121.519531 Z M 186.5625 117.304688 " fill-opacity="1" fill-rule="nonzero"/><path fill="#004aad" d="M 199.066406 115.039062 L 211.648438 112.695312 L 211.335938 116.992188 C 211.257812 118.472656 210.476562 119.957031 209.226562 121.207031 C 207.976562 122.457031 206.335938 123.316406 204.695312 123.628906 C 203.054688 123.941406 201.488281 123.628906 200.394531 122.847656 C 199.300781 122.066406 198.753906 120.738281 198.832031 119.253906 Z M 199.066406 115.039062 " fill-opacity="1" fill-rule="nonzero"/><path fill="#000000" d="M 211.648438 112.695312 L 224.15625 110.351562 L 223.84375 114.648438 C 223.761719 116.132812 222.980469 117.617188 221.730469 118.863281 C 220.480469 120.113281 218.839844 120.972656 217.199219 121.285156 C 215.558594 121.597656 213.996094 121.285156 212.898438 120.503906 C 211.804688 119.722656 211.257812 118.398438 211.335938 116.914062 Z M 211.648438 112.695312 " fill-opacity="1" fill-rule="nonzero"/><path fill="#004aad" d="M 224.15625 110.351562 L 236.738281 108.011719 L 236.425781 112.304688 C 236.347656 113.007812 236.191406 113.789062 235.800781 114.492188 C 235.410156 115.195312 234.941406 115.898438 234.3125 116.523438 C 233.6875 117.148438 232.984375 117.695312 232.203125 118.085938 C 231.421875 118.472656 230.5625 118.785156 229.78125 118.941406 C 228.140625 119.253906 226.578125 118.941406 225.484375 118.164062 C 224.390625 117.382812 223.84375 116.054688 223.921875 114.570312 Z M 224.15625 110.351562 " fill-opacity="1" fill-rule="nonzero"/><path fill="#000000" d="M 236.738281 108.011719 L 249.242188 105.667969 L 248.929688 109.960938 C 248.851562 111.445312 248.070312 112.929688 246.820312 114.179688 C 245.570312 115.429688 243.925781 116.289062 242.285156 116.601562 C 241.425781 116.757812 240.644531 116.757812 239.941406 116.601562 C 239.238281 116.445312 238.535156 116.210938 237.988281 115.820312 C 237.441406 115.429688 237.050781 114.882812 236.738281 114.257812 C 236.503906 113.632812 236.347656 112.929688 236.425781 112.226562 Z M 236.738281 108.011719 " fill-opacity="1" fill-rule="nonzero"/><path fill="#004aad" d="M 249.242188 105.746094 L 261.824219 103.402344 L 261.511719 107.699219 C 261.433594 109.183594 260.652344 110.664062 259.402344 111.914062 C 258.152344 113.164062 256.511719 114.023438 254.867188 114.335938 C 253.226562 114.648438 251.664062 114.335938 250.570312 113.554688 C 249.476562 112.773438 248.929688 111.445312 249.007812 109.960938 Z M 249.242188 105.746094 " fill-opacity="1" fill-rule="nonzero"/><path fill="#004aad" d="M 128.492188 80.210938 L 138.261719 78.414062 L 148.890625 124.253906 L 136.308594 126.597656 Z M 128.492188 80.210938 " fill-opacity="1" fill-rule="nonzero"/><path fill="#fffadc" d="M 138.261719 78.414062 L 148.03125 76.617188 L 161.398438 121.988281 L 148.890625 124.332031 Z M 138.261719 78.414062 " fill-opacity="1" fill-rule="nonzero"/><path fill="#004aad" d="M 148.03125 76.617188 L 157.800781 74.824219 L 173.980469 119.644531 L 161.398438 121.988281 Z M 148.03125 76.617188 " fill-opacity="1" fill-rule="nonzero"/><path fill="#fffadc" d="M 157.800781 74.824219 L 167.570312 73.027344 L 186.5625 117.382812 L 173.980469 119.722656 Z M 157.800781 74.824219 " fill-opacity="1" fill-rule="nonzero"/><path fill="#004aad" d="M 167.570312 73.027344 L 177.339844 71.230469 L 199.066406 115.039062 L 186.5625 117.382812 Z M 167.570312 73.027344 " fill-opacity="1" fill-rule="nonzero"/><path fill="#fffadc" d="M 177.339844 71.230469 L 187.109375 69.433594 L 211.648438 112.695312 L 199.066406 115.039062 Z M 177.339844 71.230469 " fill-opacity="1" fill-rule="nonzero"/><path fill="#004aad" d="M 187.109375 69.355469 L 196.878906 67.558594 L 224.15625 110.351562 L 211.648438 112.695312 Z M 187.109375 69.355469 " fill-opacity="1" fill-rule="nonzero"/><path fill="#fffadc" d="M 196.878906 67.558594 L 206.648438 65.765625 L 236.738281 108.011719 L 224.15625 110.351562 Z M 196.878906 67.558594 " fill-opacity="1" fill-rule="nonzero"/><path fill="#004aad" d="M 206.648438 65.765625 L 216.417969 63.96875 L 249.242188 105.746094 L 236.660156 108.089844 Z M 206.648438 65.765625 " fill-opacity="1" fill-rule="nonzero"/><path fill="#fffadc" d="M 216.417969 63.96875 L 226.1875 62.171875 L 261.824219 103.402344 L 249.320312 105.746094 Z M 216.417969 63.96875 " fill-opacity="1" fill-rule="nonzero"/><path fill="#004aad" d="M 226.1875 62.171875 L 235.957031 60.375 L 274.328125 101.0625 L 261.746094 103.402344 Z M 226.1875 62.171875 " fill-opacity="1" fill-rule="nonzero"/><path fill="#000000" d="M 261.824219 103.402344 L 274.40625 101.0625 L 274.09375 105.355469 C 274.015625 106.839844 273.234375 108.324219 271.984375 109.574219 C 270.734375 110.820312 269.09375 111.679688 267.453125 111.992188 C 265.808594 112.304688 264.246094 111.992188 263.152344 111.210938 C 262.058594 110.429688 261.511719 109.105469 261.589844 107.621094 Z M 261.824219 103.402344 " fill-opacity="1" fill-rule="nonzero"/><g clip-path="url(#104bc36d2c)"><path fill="#000000" d="M 222.746094 143.386719 C 222.746094 138.386719 222.746094 135.886719 224.3125 134.09375 C 225.875 132.296875 228.296875 131.828125 233.21875 130.890625 L 314.8125 115.742188 C 319.738281 114.804688 322.160156 114.414062 323.722656 115.664062 C 325.285156 116.914062 325.285156 119.410156 325.285156 124.410156 L 325.285156 168.375 C 325.285156 173.371094 325.285156 175.871094 323.722656 177.667969 C 322.160156 179.460938 319.738281 179.929688 314.8125 180.867188 L 233.140625 196.015625 C 228.21875 196.953125 225.796875 197.34375 224.234375 196.09375 C 222.667969 194.84375 222.667969 192.347656 222.667969 187.347656 L 222.667969 143.386719 Z M 222.746094 143.386719 " fill-opacity="0.8392" fill-rule="nonzero"/></g><path fill="#ebf3f5" d="M 234.472656 138.777344 C 233.0625 139.011719 231.890625 140.417969 231.890625 141.902344 L 231.890625 144.867188 L 238.222656 143.699219 L 238.222656 141.589844 C 238.222656 140.496094 239.082031 139.480469 240.175781 139.246094 L 243.691406 138.621094 C 244.785156 138.386719 245.648438 139.167969 245.648438 140.261719 L 245.648438 142.371094 L 251.976562 141.199219 L 251.976562 141.824219 L 245.648438 142.996094 L 245.648438 146.820312 L 251.976562 145.648438 L 251.976562 146.273438 L 245.648438 147.445312 L 245.648438 149.789062 C 245.648438 150.882812 244.785156 151.898438 243.691406 152.132812 L 240.175781 152.753906 C 239.082031 152.988281 238.222656 152.210938 238.222656 151.117188 L 238.222656 148.773438 L 231.890625 149.945312 L 231.890625 153.066406 C 231.890625 154.550781 233.0625 155.488281 234.472656 155.253906 L 249.398438 152.519531 C 250.804688 152.289062 251.976562 150.882812 251.976562 149.398438 L 251.976562 138.308594 C 251.976562 136.824219 250.804688 135.886719 249.398438 136.121094 Z M 231.8125 149.242188 L 238.144531 148.070312 L 238.144531 144.242188 L 231.8125 145.414062 Z M 240.097656 139.871094 L 243.613281 139.246094 C 244.316406 139.089844 244.945312 139.558594 244.945312 140.339844 L 244.945312 149.789062 C 244.945312 150.492188 244.394531 151.195312 243.613281 151.351562 L 240.097656 151.976562 C 239.394531 152.132812 238.769531 151.664062 238.769531 150.882812 L 238.769531 141.433594 C 238.847656 140.730469 239.394531 140.027344 240.097656 139.871094 Z M 240.097656 139.871094 " fill-opacity="1" fill-rule="evenodd"/><path fill="#fffadc" d="M 231.8125 179.460938 C 231.8125 179.070312 232.125 178.757812 232.4375 178.679688 L 241.347656 177.042969 C 241.738281 176.964844 241.972656 177.199219 241.972656 177.589844 L 241.972656 179.773438 C 241.972656 180.164062 241.660156 180.476562 241.347656 180.554688 L 232.4375 182.195312 C 232.046875 182.273438 231.8125 182.039062 231.8125 181.648438 Z M 231.8125 179.460938 " fill-opacity="1" fill-rule="nonzero"/><path fill="#fffadc" d="M 244.082031 177.199219 C 244.082031 176.808594 244.394531 176.496094 244.707031 176.417969 L 268.625 171.964844 C 269.015625 171.886719 269.25 172.121094 269.25 172.511719 L 269.25 174.699219 C 269.25 175.089844 268.9375 175.402344 268.625 175.480469 L 244.707031 179.929688 C 244.316406 180.007812 244.082031 179.773438 244.082031 179.382812 Z M 244.082031 177.199219 " fill-opacity="1" fill-rule="nonzero"/><path fill="#fffadc" d="M 231.8125 169.15625 C 231.8125 168.453125 232.359375 167.75 233.140625 167.59375 L 248.617188 164.703125 C 249.320312 164.546875 249.945312 165.015625 249.945312 165.796875 L 249.945312 168.609375 C 249.945312 169.3125 249.398438 170.011719 248.617188 170.167969 L 233.140625 173.058594 C 232.4375 173.214844 231.8125 172.746094 231.8125 171.964844 Z M 231.8125 169.15625 " fill-opacity="1" fill-rule="nonzero"/><path fill="#fffadc" d="M 254.476562 164.9375 C 254.476562 164.234375 255.023438 163.53125 255.808594 163.375 L 271.28125 160.488281 C 271.984375 160.332031 272.609375 160.800781 272.609375 161.578125 L 272.609375 164.390625 C 272.609375 165.09375 272.0625 165.796875 271.28125 165.953125 L 255.808594 168.84375 C 255.101562 169 254.476562 168.53125 254.476562 167.75 Z M 254.476562 164.9375 " fill-opacity="1" fill-rule="nonzero"/><path fill="#fffadc" d="M 277.066406 160.722656 C 277.066406 160.019531 277.613281 159.316406 278.394531 159.160156 L 293.867188 156.269531 C 294.570312 156.113281 295.195312 156.582031 295.195312 157.363281 L 295.195312 160.175781 C 295.195312 160.875 294.648438 161.578125 293.867188 161.734375 L 278.394531 164.625 C 277.691406 164.78125 277.066406 164.3125 277.066406 163.53125 Z M 277.066406 160.722656 " fill-opacity="1" fill-rule="nonzero"/><path fill="#fffadc" d="M 299.652344 156.582031 C 299.652344 155.878906 300.199219 155.175781 300.980469 155.019531 L 316.453125 152.132812 C 317.15625 151.976562 317.78125 152.519531 317.78125 153.222656 L 317.78125 156.035156 C 317.78125 156.738281 317.234375 157.441406 316.453125 157.597656 L 300.980469 160.488281 C 300.277344 160.644531 299.652344 160.175781 299.652344 159.394531 Z M 299.652344 156.582031 " fill-opacity="1" fill-rule="nonzero"/><g clip-path="url(#327bf96c53)"><path fill="#004aad" d="M 146.550781 319.476562 C 146.550781 319.476562 141.539062 301.839844 141.046875 297.667969 C 139.394531 283.679688 138.070312 259.851562 137.8125 253.695312 C 137.558594 247.539062 151.117188 207.917969 150.078125 189.070312 C 149.777344 183.636719 145.484375 171.71875 144.238281 166.527344 C 142.757812 160.355469 143.960938 155.582031 142 148.703125 C 141.960938 148.5625 141.910156 148.417969 141.867188 148.273438 C 142.074219 146.304688 142.199219 144.277344 142.238281 142.230469 C 142.316406 137.964844 141.648438 133.386719 140.304688 128.996094 L 140.472656 128.949219 C 140.472656 128.949219 140.476562 128.957031 140.476562 128.957031 C 140.476562 128.953125 140.476562 128.949219 140.476562 128.945312 L 140.640625 128.898438 L 140.476562 128.929688 C 140.207031 119.074219 134.417969 113.382812 131.179688 111.078125 C 131.074219 111.003906 130.957031 110.933594 130.835938 110.863281 C 130.816406 110.917969 130.792969 110.972656 130.773438 111.027344 C 130.765625 111.023438 130.753906 111.015625 130.746094 111.011719 L 130.628906 110.941406 L 130.667969 110.8125 C 130.824219 110.308594 130.882812 109.765625 130.847656 109.230469 L 130.839844 109.128906 L 130.925781 109.074219 C 131.535156 108.683594 131.367188 107.890625 131.171875 106.972656 C 131.066406 106.464844 130.953125 105.941406 130.988281 105.464844 C 131.054688 104.523438 131.566406 103.855469 132.0625 103.207031 C 132.488281 102.652344 132.929688 102.078125 133.085938 101.328125 C 133.253906 100.523438 133.105469 99.785156 132.949219 99 C 132.75 98.023438 132.546875 97.011719 133.035156 95.90625 C 133.351562 95.183594 133.980469 94.65625 134.589844 94.148438 C 135.414062 93.453125 136.128906 92.855469 135.828125 91.945312 C 135.488281 90.925781 132.882812 89.101562 131.984375 88.472656 C 125.433594 83.886719 119.839844 81.75 114.375 81.75 C 111.699219 81.75 108.988281 82.277344 106.320312 83.324219 C 102.855469 84.679688 99.804688 87.578125 98.542969 90.710938 L 98.457031 90.921875 C 98.082031 91.84375 97.566406 93.109375 98.050781 93.960938 C 98.277344 94.363281 98.507812 94.410156 98.664062 94.410156 C 98.738281 94.410156 98.820312 94.398438 98.90625 94.371094 L 99.40625 94.226562 L 99.09375 94.644531 C 97.046875 97.375 95.109375 99.953125 97.433594 103.433594 C 98.046875 103.003906 98.585938 102.355469 99.070312 101.777344 L 99.40625 101.375 L 99.375 101.898438 C 99.3125 102.976562 99.289062 104.074219 99.3125 105.164062 C 99.351562 106.96875 99.511719 108.699219 99.777344 110.351562 C 99.710938 110.371094 99.648438 110.421875 99.640625 110.5 C 99.636719 110.519531 99.640625 110.542969 99.636719 110.5625 C 99.625 110.746094 99.617188 110.933594 99.617188 111.125 C 99.613281 111.222656 99.621094 111.324219 99.625 111.421875 C 96.125 116.527344 93.214844 124.582031 91.960938 128.046875 C 91.726562 128.699219 91.539062 129.210938 91.410156 129.539062 C 90.191406 132.566406 88.402344 135.804688 84.414062 136.933594 C 84.421875 137.539062 84.398438 138.238281 84.375 138.972656 C 84.324219 140.375 84.277344 141.824219 84.460938 142.785156 C 84.769531 145.203125 85.148438 146.746094 87.875 147.734375 L 88.011719 147.785156 L 86.195312 157.570312 L 83.363281 178.234375 L 79.730469 194.992188 L 79.699219 195.027344 C 78.855469 195.972656 78.1875 196.941406 77.652344 197.988281 C 76.4375 200.007812 75.085938 204.867188 76.523438 206.746094 C 76.660156 206.921875 76.785156 207.011719 76.902344 207.011719 C 77.007812 207.011719 77.128906 206.941406 77.261719 206.808594 L 77.648438 206.421875 L 72.109375 239.621094 L 68.578125 260.113281 L 64.964844 280.5625 L 60.335938 300.804688 L 57.65625 319.402344 L 57.484375 319.378906 L 57.179688 321.5 L 55.554688 329.652344 C 55.613281 329.65625 55.667969 329.667969 55.726562 329.675781 L 55.691406 329.839844 L 55.535156 329.824219 C 55.167969 329.78125 54.839844 329.761719 54.53125 329.761719 C 53.75 329.761719 53.128906 329.894531 52.632812 330.171875 C 51.472656 330.820312 51.339844 333 51.242188 334.59375 C 51.214844 335.046875 51.191406 335.476562 51.144531 335.828125 C 51.070312 336.390625 50.890625 337.164062 50.679688 338.0625 C 50.042969 340.773438 49.082031 344.875 50.671875 346.027344 C 52.039062 347.011719 54.691406 347.121094 56.625 347.199219 C 56.96875 347.214844 57.289062 347.226562 57.578125 347.242188 C 57.800781 347.253906 58.003906 347.261719 58.195312 347.261719 C 59.054688 347.261719 59.621094 347.132812 59.980469 346.851562 C 60.542969 346.40625 60.636719 345.558594 60.78125 344.273438 C 60.816406 343.972656 60.851562 343.648438 60.898438 343.300781 C 60.972656 342.738281 61.136719 341.929688 61.332031 340.996094 C 62.058594 337.5 63.269531 331.65625 60.914062 330.867188 C 60.53125 330.738281 60.085938 330.625 59.511719 330.515625 L 59.339844 330.480469 L 59.371094 330.3125 C 59.429688 330.324219 59.488281 330.332031 59.542969 330.34375 L 61.160156 322.234375 L 61.492188 319.949219 L 61.488281 319.949219 L 61.320312 319.925781 L 63.960938 301.558594 L 68.582031 281.34375 L 72.226562 260.75 L 75.761719 240.234375 L 80.371094 212.578125 L 80.714844 212.597656 C 80.734375 212.917969 80.773438 213.167969 80.835938 213.34375 C 80.960938 213.683594 81.125 213.683594 81.183594 213.683594 C 81.828125 213.683594 83.167969 212.09375 84.769531 209.4375 C 85.621094 208.019531 86.234375 207.667969 87.167969 207.132812 C 87.503906 206.941406 87.882812 206.726562 88.335938 206.425781 C 89.726562 205.5 89.75 204.941406 89.808594 203.585938 C 89.820312 203.335938 89.832031 203.058594 89.855469 202.75 C 89.878906 202.425781 89.894531 202.144531 89.90625 201.894531 C 90.007812 200.007812 90.09375 199.75 92.21875 198.230469 C 94.824219 196.179688 100.492188 194.589844 107.628906 192.722656 L 107.863281 192.660156 L 107.847656 192.84375 C 107.789062 192.859375 107.730469 192.875 107.671875 192.890625 C 107.625 193.488281 107.578125 194.089844 107.53125 194.6875 C 106.453125 200.289062 105.488281 206.003906 103.835938 211.378906 C 101.722656 219.074219 98.832031 226.382812 97.488281 234.078125 C 96.820312 237.921875 95.753906 241.386719 95.46875 245.230469 C 95.195312 249.464844 96.078125 253.695312 95.800781 257.925781 C 95.679688 267.925781 96.328125 277.929688 95.816406 287.929688 C 95.5625 292.929688 95.308594 297.933594 95.441406 302.933594 C 96.738281 303.253906 98.171875 303.371094 99.652344 303.429688 C 99.753906 303.433594 99.859375 303.4375 99.960938 303.4375 L 99.742188 303.578125 C 97.136719 305.21875 93.976562 306.488281 89.800781 307.566406 C 87.636719 308.074219 85.050781 309.25 84.492188 310.632812 C 84.289062 311.128906 84.351562 311.617188 84.683594 312.125 L 84.820312 312.34375 L 84.570312 312.390625 C 84.25 312.449219 84.039062 312.640625 83.949219 312.957031 C 83.738281 313.707031 84.21875 314.871094 84.769531 315.371094 C 85.390625 315.933594 86.792969 316.355469 87.8125 316.664062 C 88.105469 316.75 88.378906 316.832031 88.605469 316.910156 C 90.234375 317.457031 92.046875 317.710938 94.300781 317.710938 C 95.40625 317.710938 96.484375 317.652344 97.675781 317.585938 C 99.71875 317.464844 106.777344 316.699219 111.660156 316.066406 L 111.667969 316.066406 C 111.675781 316.125 111.675781 316.183594 111.683594 316.242188 C 112.046875 319.882812 113.792969 323.570312 113.792969 323.570312 C 113.792969 323.570312 115.625 323.808594 117.882812 324.039062 C 117.957031 324.046875 118.039062 324.054688 118.113281 324.0625 L 118 324.167969 C 117.699219 324.4375 117.460938 324.632812 117.269531 324.761719 C 114.855469 326.917969 111.714844 328.738281 107.386719 330.480469 C 105.316406 331.265625 102.914062 332.765625 102.535156 334.210938 C 102.398438 334.730469 102.523438 335.210938 102.917969 335.679688 L 103.082031 335.875 L 102.835938 335.953125 C 102.527344 336.054688 102.347656 336.269531 102.300781 336.597656 C 102.183594 337.371094 102.808594 338.472656 103.421875 338.898438 C 104.109375 339.375 105.546875 339.617188 106.59375 339.792969 C 106.894531 339.839844 107.175781 339.886719 107.410156 339.933594 C 108.320312 340.117188 109.261719 340.203125 110.285156 340.203125 C 112.457031 340.203125 114.585938 339.800781 116.460938 339.441406 C 119.289062 338.90625 130.769531 336.0625 133.710938 335.125 C 134.871094 334.757812 136.097656 334.4375 137.289062 334.128906 C 139.320312 333.605469 141.421875 333.058594 143.230469 332.246094 C 145.101562 331.40625 145.664062 330.988281 145.179688 329.238281 C 144.960938 328.457031 144.699219 327.898438 144.351562 327.476562 L 144.289062 327.398438 L 144.324219 327.304688 C 144.40625 327.09375 144.457031 326.914062 144.476562 326.746094 C 144.695312 324.882812 142.984375 322.535156 141.738281 320.820312 L 141.699219 320.765625 C 141.757812 320.75 141.820312 320.734375 141.878906 320.71875 C 144.617188 320.003906 146.550781 319.476562 146.550781 319.476562 Z M 140.46875 128.929688 L 140.304688 128.960938 C 140.300781 128.800781 140.289062 128.644531 140.28125 128.488281 C 140.386719 128.734375 140.449219 128.890625 140.46875 128.929688 Z M 107.441406 177.167969 C 101.988281 179.664062 91.824219 185.914062 86.105469 189.964844 C 85.648438 190.261719 85.183594 190.5625 84.714844 190.875 L 84.359375 191.109375 L 87 178.949219 L 89.84375 158.203125 L 91.878906 147.230469 L 92.222656 147.242188 L 92.28125 147.800781 C 92.328125 148.292969 92.371094 148.753906 92.433594 149.039062 C 92.800781 150.109375 93.203125 150.675781 93.597656 150.675781 C 94.371094 150.675781 95.289062 148.679688 95.957031 147.222656 C 96.265625 146.554688 96.558594 145.921875 96.8125 145.5 C 97.035156 145.03125 97.304688 144.609375 97.566406 144.203125 C 98.164062 143.273438 98.730469 142.398438 98.695312 141.03125 C 98.757812 140.179688 98.679688 139.546875 98.605469 138.9375 C 98.464844 137.785156 98.34375 136.789062 99.308594 134.933594 C 100.128906 133.207031 101.253906 131.390625 102.851562 129.222656 L 103.039062 128.96875 C 103.023438 129.085938 103.007812 129.207031 102.992188 129.324219 C 102.859375 130.425781 102.765625 131.535156 102.695312 132.621094 C 102.519531 135.207031 102.460938 137.65625 102.296875 139.527344 C 102.292969 139.566406 102.292969 139.601562 102.289062 139.640625 C 101.730469 145.699219 105.753906 166.660156 107.371094 177.011719 C 107.429688 176.984375 107.480469 176.964844 107.535156 176.9375 C 107.539062 176.953125 107.539062 176.96875 107.542969 176.984375 L 107.5625 177.113281 Z M 102.871094 132.535156 C 102.871094 132.574219 102.867188 132.609375 102.863281 132.644531 C 102.847656 132.757812 102.839844 132.871094 102.824219 132.984375 C 102.808594 132.910156 102.785156 132.84375 102.769531 132.773438 C 102.746094 132.660156 102.796875 132.582031 102.871094 132.535156 Z M 102.871094 132.535156 " fill-opacity="1" fill-rule="nonzero"/></g><path fill="#fffadc" d="M 119.917969 131.195312 C 117.742188 131.714844 115.78125 132.921875 114.101562 134.484375 C 114.113281 134.519531 114.128906 134.554688 114.140625 134.589844 C 114.183594 134.714844 114.050781 134.855469 113.917969 134.8125 C 113.882812 134.800781 113.851562 134.777344 113.816406 134.761719 C 111.820312 136.703125 110.234375 139.132812 109.1875 141.488281 C 106.34375 147.882812 108.105469 154.660156 112.453125 160.085938 C 112.546875 160.203125 112.644531 160.320312 112.738281 160.4375 C 113.207031 158.171875 113.621094 156.109375 113.898438 154.609375 C 113.863281 154.636719 113.828125 154.65625 113.773438 154.660156 C 113.023438 154.710938 112.496094 154.535156 111.746094 154.425781 C 111.582031 154.402344 111.476562 154.214844 111.46875 154.066406 C 111.304688 148.941406 114.617188 144.507812 115.074219 139.449219 C 115.101562 139.140625 115.558594 139.128906 115.5625 139.449219 C 115.570312 142.273438 114.574219 144.800781 113.628906 147.429688 C 113.132812 148.808594 112.574219 150.230469 112.359375 151.6875 C 112.082031 153.59375 112.277344 153.660156 113.832031 154.246094 C 113.886719 154.265625 113.921875 154.300781 113.945312 154.339844 C 114.054688 153.746094 114.136719 153.253906 114.191406 152.890625 C 114.757812 148.921875 134.417969 154.789062 133.574219 157.347656 C 133.222656 158.410156 131.886719 163.359375 130.269531 168.9375 C 134.421875 167.015625 136.847656 161.554688 137.949219 157.535156 C 140.222656 149.230469 130.832031 128.578125 119.917969 131.195312 Z M 134.207031 158.09375 C 136.207031 157.996094 135.421875 155.023438 135.246094 153.601562 C 135.015625 151.699219 134.550781 149.816406 134.390625 147.910156 C 134.371094 147.667969 134.71875 147.652344 134.789062 147.855469 C 135.957031 151.046875 136.523438 154.910156 136.148438 158.296875 C 136.121094 158.554688 135.917969 158.738281 135.644531 158.675781 C 135.171875 158.5625 134.695312 158.5 134.210938 158.496094 C 133.949219 158.484375 133.949219 158.105469 134.207031 158.09375 Z M 142.414062 142.234375 C 142.371094 144.507812 142.226562 146.660156 142 148.703125 C 141.542969 147.09375 140.910156 145.371094 140.03125 143.484375 C 136.917969 136.804688 132.730469 125.769531 124.957031 125.765625 C 117.320312 125.765625 112.234375 130.613281 109.820312 132.835938 C 109.695312 132.792969 109.535156 132.820312 109.476562 132.953125 C 109.4375 133.035156 109.414062 133.128906 109.390625 133.226562 C 109.042969 133.539062 108.765625 133.769531 108.570312 133.867188 C 107.289062 134.515625 105.304688 127.964844 106.035156 121.820312 C 108.582031 123.292969 111.894531 123.605469 116.078125 122.277344 C 120.257812 121.007812 123.375 118.464844 125.445312 115.296875 C 125.597656 115.265625 125.742188 115.238281 125.867188 115.207031 C 126.757812 115.042969 127.445312 114.472656 128.160156 113.953125 C 136.136719 117.953125 140.394531 128.746094 140.472656 128.945312 C 141.816406 133.339844 142.492188 137.945312 142.414062 142.234375 Z M 102.296875 139.527344 C 102.257812 137.152344 102.386719 134.851562 102.691406 132.621094 C 102.519531 135.207031 102.460938 137.65625 102.296875 139.527344 Z M 102.296875 139.527344 " fill-opacity="1" fill-rule="nonzero"/><path fill="#f38e64" d="M 84.238281 136.804688 C 87.992188 135.796875 89.832031 132.996094 91.25 129.472656 C 92.09375 127.324219 95.40625 117.148438 99.617188 111.121094 C 99.585938 114.824219 101.863281 119.695312 105.164062 121.441406 C 103.960938 123.582031 103.34375 126.414062 102.992188 129.324219 C 101.636719 131.164062 100.394531 133.046875 99.464844 135.007812 C 98.023438 137.773438 99.050781 138.53125 98.867188 141.042969 C 98.917969 143.058594 97.683594 144.0625 96.96875 145.570312 C 95.757812 147.585938 93.90625 153.871094 92.269531 149.09375 C 92.171875 148.667969 92.128906 147.980469 92.050781 147.261719 C 91.902344 145.855469 91.632812 144.316406 90.632812 144.316406 C 89.625 144.316406 88.332031 147.152344 87.847656 147.910156 C 87.835938 147.90625 87.828125 147.902344 87.816406 147.898438 C 85.042969 146.890625 84.605469 145.3125 84.289062 142.804688 C 84 141.296875 84.285156 138.5625 84.238281 136.804688 Z M 133.574219 157.347656 C 133.222656 158.40625 131.886719 163.355469 130.269531 168.9375 C 127.992188 176.800781 125.160156 185.921875 123.753906 187.199219 C 121.371094 189.363281 114.507812 191.101562 107.671875 192.890625 C 101.335938 194.546875 95.019531 196.246094 92.328125 198.363281 C 89.890625 200.105469 90.21875 200.140625 90.027344 202.761719 C 89.886719 204.730469 90.167969 205.417969 88.433594 206.570312 C 86.699219 207.71875 86.042969 207.65625 84.917969 209.527344 C 84.167969 210.773438 81.367188 215.285156 80.675781 213.402344 C 80.601562 213.199219 80.558594 212.925781 80.542969 212.605469 C 80.394531 209.972656 81.917969 203.949219 80.863281 203.289062 C 79.347656 202.34375 78.386719 205.925781 77.386719 206.929688 C 77.0625 207.253906 76.738281 207.308594 76.386719 206.851562 C 74.839844 204.824219 76.378906 199.769531 77.503906 197.898438 C 78.074219 196.785156 78.78125 195.796875 79.570312 194.910156 C 81.058594 193.234375 82.847656 191.910156 84.617188 190.730469 C 85.085938 190.417969 85.554688 190.113281 86.011719 189.820312 C 92.058594 185.535156 102.167969 179.390625 107.371094 177.011719 C 108.15625 176.652344 108.832031 176.375 109.363281 176.207031 C 109.363281 176.207031 111.300781 167.386719 112.738281 160.433594 C 113.207031 158.167969 113.621094 156.105469 113.894531 154.609375 C 113.980469 154.542969 114.003906 154.429688 113.945312 154.335938 C 114.054688 153.746094 114.136719 153.253906 114.1875 152.890625 C 114.761719 148.921875 134.421875 154.789062 133.574219 157.347656 Z M 86.050781 204.859375 C 86.035156 204.460938 85.554688 204.363281 85.339844 204.667969 C 84.9375 205.222656 85.027344 206.105469 84.824219 206.753906 C 84.632812 207.355469 84.191406 208.179688 84.738281 208.710938 C 84.808594 208.78125 84.90625 208.769531 84.980469 208.710938 C 85.484375 208.308594 85.636719 207.347656 85.832031 206.761719 C 86.019531 206.191406 86.074219 205.453125 86.050781 204.859375 Z M 88.480469 204.746094 C 88.496094 204.566406 88.230469 204.546875 88.179688 204.703125 C 88.109375 204.929688 87.980469 205.113281 87.902344 205.332031 C 87.816406 205.570312 87.75 205.804688 87.707031 206.050781 C 87.6875 206.171875 87.800781 206.28125 87.917969 206.214844 C 88.125 206.101562 88.324219 205.894531 88.394531 205.667969 C 88.484375 205.363281 88.453125 205.058594 88.480469 204.746094 Z M 120.003906 175.78125 C 119.441406 175.625 118.882812 175.730469 118.304688 175.703125 C 117.144531 175.644531 115.972656 175.265625 114.832031 175.058594 C 113.199219 174.761719 111.523438 174.660156 110.140625 175.707031 C 109.8125 175.960938 110.085938 176.457031 110.46875 176.269531 C 112.488281 175.296875 114.839844 176.136719 116.898438 176.5625 C 117.839844 176.753906 119.625 177.230469 120.132812 176.097656 C 120.1875 175.972656 120.148438 175.820312 120.003906 175.78125 Z M 99.140625 105.167969 C 99.117188 104.082031 99.136719 102.980469 99.203125 101.890625 C 100.449219 100.398438 101.367188 97.699219 103.609375 98.488281 C 106.503906 99.257812 108.148438 101.324219 111.425781 101.132812 C 111.039062 98.25 115.949219 101.398438 117.296875 102.167969 C 117.664062 102.371094 120.933594 105.015625 120.933594 105.015625 C 120.933594 105.015625 123.980469 106.398438 124.546875 106.964844 C 125.703125 107.925781 126.730469 108.824219 127.167969 107.9375 C 127.289062 108.035156 127.417969 108.136719 127.546875 108.234375 C 127.296875 108.382812 127.078125 108.644531 126.933594 109.046875 C 126.632812 109.902344 126.613281 110.753906 126.191406 111.578125 C 125.675781 112.585938 124.699219 112.1875 123.96875 112.757812 C 123.929688 112.789062 123.949219 112.839844 123.980469 112.863281 C 124.78125 113.472656 126.046875 112.917969 126.617188 112.234375 C 126.96875 111.8125 127.199219 111.234375 127.328125 110.707031 C 127.40625 110.378906 127.441406 110.042969 127.511719 109.714844 C 127.699219 108.800781 128.738281 108.503906 129.132812 109.59375 C 129.296875 110.042969 129.992188 109.863281 129.894531 109.441406 C 130.109375 109.476562 130.320312 109.476562 130.511719 109.429688 C 130.71875 109.378906 130.882812 109.304688 131.019531 109.21875 C 131.058594 109.777344 130.992188 110.347656 130.832031 110.859375 C 130.746094 111.144531 130.632812 111.414062 130.492188 111.648438 C 130.007812 112.609375 129.335938 113.089844 128.5625 113.667969 C 128.425781 113.757812 128.292969 113.855469 128.160156 113.953125 C 127.445312 114.476562 126.757812 115.046875 125.863281 115.207031 C 125.742188 115.238281 125.597656 115.269531 125.445312 115.296875 C 123.375 118.464844 120.253906 121.007812 116.078125 122.277344 C 111.894531 123.609375 108.582031 123.292969 106.03125 121.820312 C 105.851562 121.71875 105.671875 121.609375 105.496094 121.492188 C 104.335938 119.878906 102.933594 118.503906 101.898438 116.78125 C 100.710938 114.808594 100.28125 112.691406 99.949219 110.457031 C 99.921875 110.269531 99.652344 110.335938 99.640625 110.5 C 99.636719 110.519531 99.640625 110.542969 99.636719 110.5625 C 99.34375 108.855469 99.179688 107.042969 99.140625 105.167969 Z M 112.175781 107.902344 C 112.222656 109.25 113.929688 110.210938 115.121094 110.414062 C 116.496094 110.644531 118.292969 109.78125 119.164062 108.757812 C 119.339844 108.546875 119.167969 108.292969 118.910156 108.328125 C 117.746094 108.484375 116.835938 109.316406 115.644531 109.441406 C 114.160156 109.597656 113.671875 108.191406 112.550781 107.6875 C 112.390625 107.617188 112.171875 107.699219 112.175781 107.902344 Z M 110.308594 118.527344 C 109 118.566406 107.441406 118.144531 106.625 117.03125 C 106.472656 116.820312 106.164062 116.996094 106.273438 117.238281 C 106.875 118.519531 107.863281 119.132812 109.296875 119.3125 C 110.402344 119.453125 112.597656 119.53125 113.378906 118.566406 C 113.484375 118.433594 113.476562 118.171875 113.265625 118.136719 C 112.332031 117.984375 111.273438 118.496094 110.308594 118.527344 Z M 105.398438 113.125 C 105.320312 114.628906 107.128906 115.949219 108.570312 115.757812 C 108.78125 115.730469 108.925781 115.492188 108.753906 115.320312 C 108.296875 114.859375 107.78125 114.746094 107.191406 114.449219 C 105.628906 113.65625 106.875 112.058594 107.445312 111.046875 C 108.078125 109.921875 108.679688 108.566406 108.4375 107.257812 C 108.390625 107.003906 107.980469 107.003906 107.933594 107.253906 C 107.699219 108.457031 107.273438 109.53125 106.699219 110.613281 C 106.300781 111.359375 105.445312 112.242188 105.398438 113.125 Z M 105.398438 113.125 " fill-opacity="1" fill-rule="nonzero"/><path fill="#ffde59" d="M 86.855469 153.082031 L 87.816406 147.898438 C 87.828125 147.902344 87.835938 147.90625 87.847656 147.910156 C 88.332031 147.15625 89.625 144.316406 90.632812 144.316406 C 91.632812 144.316406 91.902344 145.855469 92.050781 147.261719 L 90.835938 153.816406 Z M 144.652344 326.765625 C 144.625 326.972656 144.566406 327.171875 144.488281 327.367188 C 143.652344 329.484375 139.941406 330.734375 138 331.386719 C 134.464844 332.453125 130.546875 332.453125 127.019531 333.875 C 123.839844 334.941406 120.292969 335.652344 116.75 336.363281 C 113.203125 337.074219 108.609375 338.496094 104.652344 337.074219 C 103.753906 336.660156 103.152344 336.230469 102.785156 335.789062 C 100.929688 333.582031 104.972656 331.210938 107.324219 330.320312 C 110.851562 328.898438 114.367188 327.121094 117.15625 324.632812 C 117.382812 324.476562 117.628906 324.269531 117.882812 324.039062 C 120.273438 324.285156 123.136719 324.519531 124.808594 324.457031 C 127.566406 324.351562 136.359375 322.15625 141.882812 320.71875 C 143.183594 322.503906 144.875 324.847656 144.652344 326.765625 Z M 123.8125 325.996094 C 121.511719 326.636719 119.792969 328.285156 117.730469 329.410156 C 116.800781 329.917969 115.835938 330.378906 114.898438 330.882812 C 113.628906 331.566406 112.554688 332.230469 111.355469 330.546875 C 110.945312 329.972656 111.007812 330.007812 110.539062 329.53125 C 110.28125 329.265625 109.8125 329.613281 110.019531 329.929688 C 111.113281 331.601562 111.890625 333.09375 114.0625 332.148438 C 115.460938 331.542969 116.738281 330.707031 118.132812 330.09375 C 120.230469 329.175781 121.800781 327.414062 123.980469 326.605469 C 124.355469 326.46875 124.210938 325.886719 123.8125 325.996094 Z M 139.511719 322.679688 C 138.367188 322.527344 137.417969 323.882812 136.890625 324.730469 C 136.207031 325.820312 135.589844 327.328125 135.476562 328.609375 C 135.453125 328.882812 135.871094 328.984375 135.988281 328.75 C 136.5 327.75 136.707031 326.613281 137.21875 325.601562 C 137.507812 325.019531 137.886719 324.496094 138.339844 324.03125 C 138.746094 323.605469 139.296875 323.394531 139.652344 322.921875 C 139.734375 322.8125 139.617188 322.691406 139.511719 322.679688 Z M 108.898438 313.4375 C 105.597656 314.082031 101.980469 314.332031 98.359375 314.578125 C 94.742188 314.828125 89.984375 315.644531 86.230469 313.730469 C 85.390625 313.207031 84.851562 312.703125 84.539062 312.21875 C 82.976562 309.800781 87.304688 307.972656 89.761719 307.398438 C 93.210938 306.507812 96.6875 305.296875 99.652344 303.429688 C 101.707031 303.511719 103.847656 303.476562 105.871094 303.703125 C 107.554688 304.117188 109.464844 304.644531 111.410156 304.984375 C 111.542969 307.644531 111.617188 310.308594 111.621094 312.964844 C 110.707031 313.058594 109.796875 313.203125 108.898438 313.4375 Z M 106.835938 305.628906 C 105.121094 305.601562 103.617188 306.363281 102.09375 307.078125 C 100.984375 307.605469 99.878906 308.101562 98.726562 308.535156 C 96.773438 309.277344 95.878906 307.902344 94.917969 306.550781 C 94.722656 306.277344 94.3125 306.511719 94.464844 306.816406 C 95.121094 308.132812 96.0625 310.007812 97.886719 309.605469 C 100.984375 308.921875 103.9375 307.132812 106.886719 306 C 107.078125 305.925781 107.058594 305.632812 106.835938 305.628906 Z M 97.898438 94.046875 C 97.332031 93.050781 98.007812 91.582031 98.382812 90.644531 C 99.726562 87.300781 102.9375 84.460938 106.257812 83.160156 C 115.753906 79.445312 124.058594 82.710938 132.082031 88.332031 C 133.019531 88.988281 135.632812 90.800781 135.992188 91.890625 C 136.566406 93.621094 133.933594 94.300781 133.195312 95.976562 C 132.359375 97.875 133.652344 99.472656 133.253906 101.363281 C 132.902344 103.035156 131.28125 103.796875 131.160156 105.476562 C 131.074219 106.765625 132.109375 108.519531 131.019531 109.21875 C 130.882812 109.304688 130.71875 109.378906 130.511719 109.429688 C 130.320312 109.476562 130.109375 109.472656 129.894531 109.441406 C 129.425781 109.371094 128.917969 109.140625 128.417969 108.832031 C 128.121094 108.652344 127.828125 108.445312 127.546875 108.234375 C 127.417969 108.132812 127.289062 108.035156 127.167969 107.9375 C 126.726562 107.582031 126.34375 107.242188 126.074219 107.007812 C 124.402344 105.574219 124.023438 103.6875 122.644531 102.210938 C 120.589844 100.007812 119.460938 97.449219 116.648438 95.902344 C 114.878906 94.929688 113.097656 94.410156 111.199219 93.765625 C 108.820312 92.953125 106.167969 92.710938 103.671875 92.957031 C 102.5625 93.066406 101.398438 93.25 100.394531 93.746094 C 99.949219 93.96875 99.4375 94.398438 98.957031 94.539062 C 98.566406 94.652344 98.199219 94.574219 97.898438 94.046875 Z M 107.992188 86.488281 C 105.96875 86.746094 104.816406 89.695312 103.765625 91.144531 C 103.441406 91.597656 104.183594 92.015625 104.507812 91.578125 C 105.070312 90.824219 105.550781 90.015625 106.085938 89.242188 C 106.695312 88.363281 107.652344 87.757812 108.214844 86.875 C 108.3125 86.722656 108.1875 86.460938 107.992188 86.488281 Z M 115.144531 88.398438 C 114.371094 88.660156 113.898438 89.476562 113.433594 90.101562 C 113.195312 90.425781 112.960938 90.753906 112.703125 91.0625 C 112.5625 91.234375 112.34375 91.398438 112.199219 91.578125 C 112.113281 91.609375 112.042969 91.726562 112.089844 91.828125 C 112.09375 91.871094 112.101562 91.910156 112.109375 91.949219 C 112.148438 92.238281 112.511719 92.308594 112.726562 92.199219 C 113.292969 91.921875 113.679688 91.273438 114.042969 90.789062 C 114.523438 90.152344 115.105469 89.570312 115.53125 88.898438 C 115.6875 88.652344 115.429688 88.300781 115.144531 88.398438 Z M 121.230469 93.414062 C 120.773438 93.679688 120.542969 94.15625 120.28125 94.59375 C 120.175781 94.773438 120.066406 94.953125 119.945312 95.125 C 119.855469 95.253906 119.742188 95.3125 119.664062 95.417969 C 119.644531 95.417969 119.625 95.421875 119.605469 95.414062 C 119.398438 95.367188 119.289062 95.636719 119.464844 95.75 C 119.535156 95.800781 119.660156 95.828125 119.710938 95.890625 C 119.832031 96.039062 120.039062 96.019531 120.191406 95.953125 C 120.554688 95.796875 120.808594 95.453125 121.015625 95.132812 C 121.269531 94.746094 121.558594 94.351562 121.746094 93.929688 C 121.890625 93.605469 121.585938 93.203125 121.230469 93.414062 Z M 126.371094 99.367188 C 126.320312 99.21875 126.125 99.105469 125.976562 99.210938 C 125.496094 99.558594 125.414062 100.238281 125.253906 100.78125 C 125.15625 101.125 125.042969 101.464844 124.957031 101.8125 C 124.867188 102.160156 124.851562 102.511719 124.773438 102.851562 C 124.734375 103.019531 124.964844 103.195312 125.089844 103.035156 C 125.25 102.828125 125.425781 102.722656 125.539062 102.476562 C 125.691406 102.132812 125.824219 101.785156 125.9375 101.425781 C 126.128906 100.832031 126.574219 99.992188 126.371094 99.367188 Z M 128.28125 91.226562 C 128.84375 91.5625 129.195312 92.191406 129.5 92.75 C 129.773438 93.246094 130.042969 94.164062 130.675781 94.28125 C 130.800781 94.300781 130.933594 94.246094 130.96875 94.117188 C 131.132812 93.457031 130.433594 92.546875 130.121094 91.996094 C 129.746094 91.347656 129.253906 90.84375 128.503906 90.699219 C 128.1875 90.636719 127.988281 91.050781 128.28125 91.226562 Z M 103.789062 86.882812 C 109.476562 84.765625 116.132812 86.851562 120.695312 90.421875 C 123.121094 92.316406 125.328125 94.675781 126.917969 97.304688 C 128.246094 99.503906 128.492188 102.144531 130.570312 103.839844 C 130.769531 104.003906 131.097656 103.796875 130.945312 103.550781 C 129.15625 100.644531 128.28125 97.386719 126.199219 94.648438 C 124.21875 92.042969 121.679688 89.871094 118.984375 88.027344 C 115.054688 85.339844 107.929688 84.050781 103.675781 86.617188 C 103.542969 86.703125 103.632812 86.941406 103.789062 86.882812 Z M 103.789062 86.882812 " fill-opacity="1" fill-rule="nonzero"/><g clip-path="url(#b1295df81e)"><path fill="#000000" d="M 79.570312 194.910156 L 83.195312 178.195312 L 86.027344 157.546875 L 86.855469 153.082031 L 90.835938 153.816406 L 92.050781 147.261719 L 90.015625 158.234375 L 87.171875 178.972656 L 84.621094 190.730469 C 82.847656 191.910156 81.058594 193.234375 79.570312 194.910156 Z M 80.863281 203.289062 C 79.347656 202.34375 78.386719 205.925781 77.386719 206.929688 L 71.941406 239.589844 L 68.410156 260.085938 L 64.796875 280.523438 L 60.164062 300.777344 L 57.488281 319.378906 L 61.492188 319.949219 L 64.128906 301.597656 L 68.753906 281.375 L 72.398438 260.777344 L 75.933594 240.265625 L 80.542969 212.605469 C 80.394531 209.972656 81.917969 203.949219 80.863281 203.289062 Z M 60.96875 330.699219 C 60.515625 330.550781 60.03125 330.4375 59.542969 330.34375 C 59.003906 330.238281 58.457031 330.152344 57.941406 330.0625 C 57.242188 329.933594 56.402344 329.746094 55.554688 329.652344 C 54.480469 329.527344 53.394531 329.546875 52.546875 330.019531 C 50.96875 330.902344 51.183594 334.199219 50.972656 335.804688 C 50.664062 338.15625 48.375 344.574219 50.570312 346.167969 C 52.226562 347.359375 55.628906 347.304688 57.570312 347.414062 C 58.863281 347.488281 59.621094 347.351562 60.089844 346.984375 C 60.851562 346.386719 60.828125 345.183594 61.070312 343.324219 C 61.433594 340.546875 64.101562 331.75 60.96875 330.699219 Z M 145.347656 329.195312 C 145.125 328.390625 144.847656 327.804688 144.488281 327.367188 C 143.652344 329.484375 139.941406 330.738281 138 331.386719 C 134.464844 332.453125 130.546875 332.453125 127.019531 333.875 C 123.839844 334.941406 120.292969 335.652344 116.75 336.363281 C 113.203125 337.074219 108.609375 338.5 104.652344 337.074219 C 103.753906 336.660156 103.152344 336.230469 102.785156 335.789062 C 101.464844 336.222656 102.339844 338.355469 103.324219 339.039062 C 104.238281 339.675781 106.285156 339.886719 107.375 340.105469 C 110.496094 340.726562 113.582031 340.167969 116.496094 339.613281 C 119.253906 339.089844 130.8125 336.230469 133.765625 335.289062 C 136.902344 334.292969 140.421875 333.699219 143.300781 332.40625 C 145.113281 331.59375 145.882812 331.117188 145.347656 329.195312 Z M 111.617188 314.871094 C 111.625 314.234375 111.621094 313.597656 111.621094 312.964844 C 110.707031 313.058594 109.796875 313.203125 108.898438 313.4375 C 105.601562 314.082031 101.980469 314.332031 98.363281 314.578125 C 94.742188 314.828125 89.984375 315.644531 86.230469 313.730469 C 85.390625 313.207031 84.851562 312.703125 84.539062 312.21875 C 83.171875 312.476562 83.765625 314.695312 84.65625 315.5 C 85.484375 316.246094 87.496094 316.71875 88.550781 317.074219 C 91.578125 318.089844 94.71875 317.929688 97.691406 317.757812 C 99.789062 317.632812 106.925781 316.855469 111.683594 316.242188 C 111.640625 315.78125 111.613281 315.320312 111.617188 314.871094 Z M 102.617188 109.054688 C 103.535156 109.421875 104.859375 109.285156 105.625 108.628906 C 105.757812 108.515625 105.699219 108.234375 105.511719 108.207031 C 104.8125 108.105469 104.179688 108.507812 103.46875 108.511719 C 102.492188 108.515625 101.90625 107.460938 101.394531 106.800781 C 101.257812 106.621094 101.011719 106.6875 100.984375 106.914062 C 100.875 107.75 101.898438 108.765625 102.617188 109.054688 Z M 115.121094 110.414062 C 116.496094 110.644531 118.292969 109.78125 119.164062 108.757812 C 119.339844 108.546875 119.167969 108.292969 118.910156 108.328125 C 117.746094 108.484375 116.835938 109.316406 115.644531 109.441406 C 114.160156 109.597656 113.671875 108.191406 112.550781 107.6875 C 112.390625 107.617188 112.171875 107.699219 112.175781 107.902344 C 112.222656 109.25 113.933594 110.210938 115.121094 110.414062 Z M 106.914062 106.011719 C 107.375 105.675781 106.492188 103.980469 106.1875 103.539062 C 105.878906 103.101562 102.246094 101.753906 101.746094 101.992188 C 101.246094 102.234375 99.398438 103.699219 99.625 104.40625 C 99.851562 105.113281 101.585938 104.234375 102.046875 104.15625 C 102.507812 104.152344 106.453125 106.351562 106.914062 106.011719 Z M 99.203125 101.890625 C 100.449219 100.398438 101.699219 98.839844 103.941406 99.632812 C 106.835938 100.402344 108.957031 102.132812 112.234375 101.941406 C 111.847656 99.054688 114.546875 101.363281 115.894531 102.132812 C 116.261719 102.335938 116.617188 102.527344 116.960938 102.726562 C 115.445312 102.773438 112.359375 103.351562 112.039062 103.671875 C 111.644531 104.066406 110.515625 105.625 111.105469 106.035156 C 111.695312 106.441406 116.75 104.839844 117.339844 104.914062 C 117.890625 105.050781 119.84375 106.039062 120.351562 105.644531 C 120.722656 106.414062 120.917969 107.527344 121.484375 108.09375 C 122.640625 109.054688 122.257812 107.515625 123.21875 107.710938 C 124.761719 108.09375 123.027344 112.324219 125.535156 110.210938 C 126.1875 109.609375 126.730469 108.824219 127.164062 107.9375 C 126.726562 107.582031 126.339844 107.242188 126.070312 107.007812 C 124.402344 105.574219 124.023438 103.6875 122.644531 102.210938 C 120.589844 100.007812 119.460938 97.449219 116.648438 95.902344 C 114.878906 94.929688 113.097656 94.410156 111.199219 93.765625 C 108.820312 92.953125 106.167969 92.710938 103.671875 92.957031 C 102.5625 93.066406 101.398438 93.25 100.394531 93.746094 C 99.949219 93.96875 99.4375 94.398438 98.953125 94.539062 C 96.871094 97.3125 94.855469 100.039062 97.386719 103.671875 C 98.058594 103.246094 98.628906 102.574219 99.203125 101.890625 Z M 111.007812 304.015625 C 111.082031 304.183594 111.328125 304.320312 111.511719 304.300781 C 111.621094 304.292969 111.734375 304.28125 111.847656 304.269531 C 112.5625 304.203125 112.59375 303.125 111.847656 303.132812 C 112.199219 303.128906 109.878906 284.0625 109.632812 282.089844 C 108.714844 274.757812 106.957031 267.714844 105.363281 260.515625 C 103.515625 252.171875 104.230469 244.632812 105.417969 236.269531 C 106.464844 228.871094 107.140625 221.554688 106.960938 214.074219 C 106.957031 213.910156 106.710938 213.910156 106.707031 214.074219 C 106.472656 222.160156 105.882812 230.105469 104.582031 238.097656 C 104.019531 241.558594 103.414062 245 103.160156 248.5 C 102.886719 252.277344 103.496094 256.089844 104.214844 259.785156 C 105.746094 267.625 107.695312 275.207031 108.667969 283.160156 C 109.152344 287.105469 109.59375 291.058594 110.050781 295.007812 C 110.261719 296.839844 110.484375 298.667969 110.734375 300.496094 C 110.890625 301.667969 110.519531 302.921875 111.007812 304.015625 Z M 129.582031 194.378906 C 130.261719 194.378906 131.480469 194.152344 132.28125 194.390625 C 134.453125 186.675781 136.5 178.195312 135.113281 170.527344 C 135.066406 170.265625 135.445312 170.152344 135.511719 170.417969 C 136.625 174.617188 136.140625 179.109375 135.464844 183.34375 C 134.695312 188.207031 133.566406 193 132.261719 197.746094 C 129.242188 208.691406 126.550781 219.886719 124.890625 231.128906 C 123.945312 237.507812 123.355469 243.957031 123.371094 250.410156 C 125.578125 251.085938 127.734375 251.898438 129.863281 252.828125 C 130.277344 253.011719 130.175781 253.582031 129.863281 253.789062 C 127.914062 255.101562 125.808594 256.335938 123.644531 257.460938 C 124.179688 264.460938 125.421875 271.355469 126.082031 278.34375 C 126.46875 282.480469 126.960938 286.589844 128.015625 290.617188 C 128.359375 291.945312 128.679688 293.25 128.949219 294.558594 C 129.160156 294.410156 129.363281 294.25 129.546875 294.074219 C 129.925781 293.714844 130.171875 293.253906 130.6875 293.128906 C 130.792969 293.105469 130.898438 293.160156 130.929688 293.265625 C 131.171875 294.113281 130.171875 294.925781 129.140625 295.523438 C 129.398438 296.90625 129.597656 298.300781 129.703125 299.742188 C 130.214844 306.542969 131.136719 313.417969 131.054688 320.242188 C 131.082031 320.550781 130.921875 320.75 130.695312 320.847656 C 130.691406 320.847656 130.6875 320.851562 130.683594 320.855469 C 130.652344 320.867188 130.617188 320.878906 130.585938 320.886719 C 130.570312 320.890625 130.558594 320.894531 130.542969 320.898438 C 130.125 320.988281 129.613281 320.773438 129.652344 320.242188 C 130.191406 313.507812 128.925781 306.464844 128.488281 299.742188 C 128.40625 298.507812 128.230469 297.300781 128.007812 296.105469 C 127.765625 296.21875 127.554688 296.308594 127.398438 296.375 C 125.464844 297.195312 123.238281 298.039062 121.101562 297.800781 C 120.839844 297.769531 120.730469 297.355469 121.035156 297.304688 C 123.054688 296.964844 125.105469 296.519531 126.96875 295.640625 C 127.253906 295.503906 127.546875 295.359375 127.839844 295.210938 C 127.355469 292.835938 126.71875 290.5 126.285156 288.078125 C 125.699219 284.851562 125.386719 281.605469 125.078125 278.34375 C 124.4375 271.519531 123.1875 264.785156 122.679688 257.949219 C 120.78125 258.902344 118.847656 259.777344 116.945312 260.539062 C 116.65625 260.652344 116.394531 260.203125 116.636719 260.011719 C 118.429688 258.570312 120.488281 257.488281 122.582031 256.457031 C 122.566406 256.164062 122.542969 255.875 122.527344 255.585938 C 122.460938 254.152344 122.433594 252.71875 122.425781 251.289062 C 121.300781 250.953125 120.175781 250.636719 119.027344 250.367188 C 118.347656 250.207031 118.636719 249.171875 119.316406 249.324219 C 120.363281 249.5625 121.394531 249.832031 122.414062 250.125 C 122.433594 244.4375 122.878906 238.769531 123.636719 233.113281 C 124.433594 227.121094 125.542969 221.101562 126.867188 215.128906 C 125.601562 215.027344 125.789062 209.925781 125.808594 209.550781 C 125.898438 207.710938 126.015625 205.839844 126.347656 204.023438 C 126.921875 200.859375 128.863281 198.042969 129.121094 194.839844 C 129.140625 194.589844 129.316406 194.378906 129.582031 194.378906 Z M 123.382812 251.585938 C 123.398438 252.921875 123.4375 254.253906 123.511719 255.585938 C 123.519531 255.71875 123.53125 255.851562 123.539062 255.988281 C 125.191406 255.179688 126.84375 254.371094 128.390625 253.417969 C 126.742188 252.738281 125.074219 252.125 123.382812 251.585938 Z M 129.980469 195.65625 C 129.757812 198.515625 127.835938 201.171875 127.285156 204.007812 C 127.042969 205.253906 125.664062 213.242188 127.003906 214.535156 C 128.167969 209.355469 129.484375 204.21875 130.917969 199.171875 C 131.277344 197.90625 131.652344 196.605469 132.027344 195.28125 C 131.894531 195.289062 131.757812 195.289062 131.625 195.289062 C 131.097656 195.292969 130.574219 195.296875 130.050781 195.296875 C 129.605469 195.207031 129.582031 195.328125 129.980469 195.65625 Z M 103.789062 86.882812 C 109.476562 84.765625 116.132812 86.851562 120.695312 90.421875 C 123.121094 92.316406 125.328125 94.675781 126.917969 97.304688 C 128.246094 99.503906 128.492188 102.144531 130.570312 103.839844 C 130.769531 104.003906 131.097656 103.796875 130.945312 103.550781 C 129.15625 100.644531 128.28125 97.386719 126.199219 94.648438 C 124.21875 92.042969 121.679688 89.871094 118.984375 88.027344 C 115.054688 85.339844 107.929688 84.050781 103.675781 86.617188 C 103.542969 86.703125 103.632812 86.941406 103.789062 86.882812 Z M 107.992188 86.488281 C 105.96875 86.746094 104.816406 89.695312 103.765625 91.144531 C 103.441406 91.597656 104.183594 92.015625 104.507812 91.578125 C 105.070312 90.824219 105.550781 90.015625 106.085938 89.242188 C 106.695312 88.363281 107.652344 87.757812 108.214844 86.875 C 108.3125 86.722656 108.1875 86.460938 107.992188 86.488281 Z M 115.144531 88.398438 C 114.371094 88.660156 113.898438 89.476562 113.433594 90.101562 C 113.195312 90.425781 112.960938 90.753906 112.703125 91.0625 C 112.5625 91.234375 112.34375 91.398438 112.199219 91.578125 C 112.113281 91.609375 112.042969 91.726562 112.089844 91.828125 C 112.09375 91.871094 112.101562 91.910156 112.109375 91.949219 C 112.148438 92.238281 112.511719 92.308594 112.726562 92.199219 C 113.292969 91.921875 113.679688 91.273438 114.042969 90.789062 C 114.523438 90.152344 115.105469 89.570312 115.53125 88.898438 C 115.6875 88.652344 115.429688 88.300781 115.144531 88.398438 Z M 121.230469 93.414062 C 120.773438 93.679688 120.542969 94.15625 120.28125 94.59375 C 120.175781 94.773438 120.066406 94.953125 119.945312 95.125 C 119.855469 95.253906 119.742188 95.3125 119.664062 95.417969 C 119.644531 95.417969 119.625 95.421875 119.605469 95.414062 C 119.398438 95.367188 119.289062 95.636719 119.464844 95.75 C 119.535156 95.800781 119.660156 95.828125 119.710938 95.890625 C 119.832031 96.039062 120.039062 96.019531 120.191406 95.953125 C 120.554688 95.796875 120.808594 95.453125 121.015625 95.132812 C 121.269531 94.746094 121.558594 94.351562 121.746094 93.929688 C 121.890625 93.605469 121.585938 93.203125 121.230469 93.414062 Z M 125.976562 99.210938 C 125.496094 99.558594 125.414062 100.238281 125.253906 100.78125 C 125.15625 101.125 125.042969 101.464844 124.957031 101.8125 C 124.867188 102.160156 124.851562 102.511719 124.773438 102.851562 C 124.734375 103.019531 124.964844 103.195312 125.089844 103.035156 C 125.25 102.828125 125.425781 102.722656 125.539062 102.476562 C 125.691406 102.132812 125.824219 101.785156 125.9375 101.425781 C 126.128906 100.828125 126.574219 99.992188 126.371094 99.367188 C 126.320312 99.21875 126.125 99.105469 125.976562 99.210938 Z M 128.28125 91.226562 C 128.84375 91.5625 129.195312 92.191406 129.5 92.75 C 129.773438 93.246094 130.042969 94.164062 130.675781 94.28125 C 130.800781 94.300781 130.933594 94.246094 130.96875 94.117188 C 131.132812 93.457031 130.433594 92.546875 130.121094 91.996094 C 129.746094 91.347656 129.253906 90.84375 128.503906 90.699219 C 128.1875 90.636719 127.988281 91.050781 128.28125 91.226562 Z M 110.539062 329.53125 C 110.28125 329.265625 109.8125 329.613281 110.019531 329.929688 C 111.113281 331.601562 111.890625 333.09375 114.0625 332.148438 C 115.460938 331.542969 116.738281 330.707031 118.132812 330.09375 C 120.230469 329.175781 121.800781 327.414062 123.980469 326.605469 C 124.355469 326.46875 124.210938 325.886719 123.8125 325.996094 C 121.511719 326.636719 119.792969 328.285156 117.730469 329.410156 C 116.800781 329.917969 115.832031 330.378906 114.898438 330.882812 C 113.628906 331.566406 112.554688 332.230469 111.355469 330.546875 C 110.945312 329.972656 111.007812 330.007812 110.539062 329.53125 Z M 97.886719 309.605469 C 100.984375 308.925781 103.9375 307.132812 106.886719 306 C 107.078125 305.925781 107.058594 305.632812 106.835938 305.628906 C 105.121094 305.601562 103.617188 306.363281 102.09375 307.078125 C 100.984375 307.605469 99.878906 308.101562 98.726562 308.535156 C 96.773438 309.277344 95.878906 307.902344 94.917969 306.550781 C 94.722656 306.277344 94.3125 306.511719 94.464844 306.816406 C 95.121094 308.132812 96.0625 310.007812 97.886719 309.605469 Z M 135.988281 328.75 C 136.5 327.75 136.707031 326.613281 137.21875 325.601562 C 137.507812 325.019531 137.886719 324.496094 138.339844 324.03125 C 138.746094 323.605469 139.296875 323.394531 139.652344 322.921875 C 139.734375 322.8125 139.617188 322.691406 139.511719 322.679688 C 138.367188 322.527344 137.417969 323.882812 136.890625 324.730469 C 136.207031 325.820312 135.589844 327.328125 135.476562 328.609375 C 135.453125 328.882812 135.871094 328.984375 135.988281 328.75 Z M 104.304688 137.007812 C 105.367188 139.191406 105.90625 140.386719 105.027344 142.789062 C 103.804688 146.136719 103.539062 149.421875 104.15625 152.957031 C 104.183594 153.128906 104.476562 153.132812 104.503906 152.957031 C 104.769531 151.246094 104.714844 149.535156 104.773438 147.808594 C 104.855469 145.410156 105.863281 143.363281 106.511719 141.101562 C 106.875 139.828125 106.394531 139.355469 105.773438 138.210938 C 104.785156 136.390625 103.789062 134.65625 103.1875 132.65625 C 103.109375 132.386719 102.710938 132.5 102.769531 132.769531 C 103.101562 134.285156 103.628906 135.617188 104.304688 137.007812 Z M 110.933594 135.335938 C 110.390625 134.605469 110.378906 133.71875 109.976562 132.953125 C 109.945312 132.894531 109.886719 132.859375 109.820312 132.835938 C 109.695312 132.792969 109.535156 132.820312 109.476562 132.953125 C 109.4375 133.039062 109.414062 133.132812 109.390625 133.226562 C 109.140625 134.402344 110.144531 136.390625 111.226562 136.707031 C 111.359375 136.746094 111.535156 136.707031 111.628906 136.601562 C 112.050781 136.117188 111.179688 135.671875 110.933594 135.335938 Z M 111.695312 131.460938 C 111.925781 132.65625 112.601562 134.257812 113.816406 134.761719 C 113.851562 134.777344 113.882812 134.796875 113.917969 134.8125 C 114.050781 134.855469 114.183594 134.714844 114.140625 134.589844 C 114.132812 134.554688 114.113281 134.519531 114.101562 134.484375 C 113.914062 133.964844 113.585938 133.488281 113.296875 133.023438 C 112.933594 132.4375 112.660156 131.796875 112.347656 131.1875 C 112.152344 130.808594 111.625 131.085938 111.695312 131.460938 Z M 111.695312 131.460938 " fill-opacity="1" fill-rule="nonzero"/></g><g clip-path="url(#8711669a5c)"><g clip-path="url(#6f1a06d226)"><path fill="#fffadc" d="M 155.160156 136.417969 L 173.871094 144.164062 L 164.40625 167.027344 L 145.695312 159.28125 L 155.160156 136.417969 " fill-opacity="1" fill-rule="nonzero"/></g></g><g clip-path="url(#f9641bc9e8)"><g clip-path="url(#e177661531)"><path fill="#fffadc" d="M 155.160156 148.414062 L 173.175781 155.875 L 164.285156 177.355469 L 146.269531 169.898438 L 155.160156 148.414062 " fill-opacity="1" fill-rule="nonzero"/></g></g><g clip-path="url(#13a4216e6a)"><g clip-path="url(#466078293a)"><path fill="#fffadc" d="M 195.78125 124.472656 L 223.5 135.945312 L 213.457031 160.199219 L 185.742188 148.726562 L 195.78125 124.472656 " fill-opacity="1" fill-rule="nonzero"/></g></g><g clip-path="url(#948a61cea2)"><g clip-path="url(#c8019e9b69)"><path fill="#fffadc" d="M 204.421875 140.933594 L 220.355469 147.527344 L 212.324219 166.933594 L 196.390625 160.335938 L 204.421875 140.933594 " fill-opacity="1" fill-rule="nonzero"/></g></g><g clip-path="url(#4ce2d14c5e)"><g clip-path="url(#5dd7b8d566)"><path fill="#fffadc" d="M 149.363281 199.996094 L 168.675781 197.316406 L 170.222656 208.460938 L 150.910156 211.140625 L 149.363281 199.996094 " fill-opacity="1" fill-rule="nonzero"/></g></g><g clip-path="url(#b2a7ce803d)"><g clip-path="url(#ef8d27796e)"><path fill="#fffadc" d="M 152.371094 195.648438 L 171.683594 192.96875 L 173.230469 204.109375 L 153.917969 206.789062 L 152.371094 195.648438 " fill-opacity="1" fill-rule="nonzero"/></g></g><g clip-path="url(#2eb340327a)"><g clip-path="url(#cb5a4aae4d)"><path fill="#fffadc" d="M 159.804688 201.378906 L 157.292969 219.953125 L 146.886719 218.546875 L 149.398438 199.972656 L 159.804688 201.378906 " fill-opacity="1" fill-rule="nonzero"/></g></g><g clip-path="url(#c86f6d0457)"><g clip-path="url(#0836b1a5f0)"><path fill="#fffadc" d="M 169.183594 204.910156 L 166.671875 223.484375 L 156.265625 222.078125 L 158.777344 203.503906 L 169.183594 204.910156 " fill-opacity="1" fill-rule="nonzero"/></g></g><g clip-path="url(#19153827a1)"><g clip-path="url(#e3f92f75d3)"><path fill="#fffadc" d="M 176.621094 205.730469 L 174.109375 224.304688 L 163.703125 222.898438 L 166.214844 204.324219 L 176.621094 205.730469 " fill-opacity="1" fill-rule="nonzero"/></g></g><g clip-path="url(#837a443512)"><g clip-path="url(#9fea1922b5)"><path fill="#fffadc" d="M 173.527344 204.546875 L 175.78125 230.691406 L 165.320312 231.589844 L 163.066406 205.449219 L 173.527344 204.546875 " fill-opacity="1" fill-rule="nonzero"/></g></g><g clip-path="url(#e6c1f04f0a)"><g clip-path="url(#fe94ad9f12)"><path fill="#fffadc" d="M 157.324219 215.574219 L 152.925781 233.792969 L 142.71875 231.328125 L 147.117188 213.109375 L 157.324219 215.574219 " fill-opacity="1" fill-rule="nonzero"/></g></g><g clip-path="url(#41e8938743)"><g clip-path="url(#3aed224eb2)"><path fill="#fffadc" d="M 161.675781 214.484375 L 163.402344 233.148438 L 152.945312 234.113281 L 151.222656 215.449219 L 161.675781 214.484375 " fill-opacity="1" fill-rule="nonzero"/></g></g><g clip-path="url(#91f4eba645)"><g clip-path="url(#c4e5324a45)"><path fill="#fffadc" d="M 170.089844 213.492188 L 171.8125 232.15625 L 161.359375 233.121094 L 159.632812 214.457031 L 170.089844 213.492188 " fill-opacity="1" fill-rule="nonzero"/></g></g><g clip-path="url(#6eb30a8dbd)"><g clip-path="url(#16cc52c0a0)"><path fill="#fffadc" d="M 198.90625 193.734375 L 200.628906 212.398438 L 190.175781 213.363281 L 188.453125 194.699219 L 198.90625 193.734375 " fill-opacity="1" fill-rule="nonzero"/></g></g><g clip-path="url(#d2b7541d76)"><g clip-path="url(#88aaacf7a7)"><path fill="#fffadc" d="M 206.4375 192.96875 L 208.164062 211.632812 L 197.707031 212.597656 L 195.984375 193.9375 L 206.4375 192.96875 " fill-opacity="1" fill-rule="nonzero"/></g></g><g clip-path="url(#c7391fd3a2)"><g clip-path="url(#704a3a581c)"><path fill="#fffadc" d="M 216.191406 191.640625 L 217.914062 210.3125 L 205.964844 211.414062 L 204.242188 192.746094 L 216.191406 191.640625 " fill-opacity="1" fill-rule="nonzero"/></g></g><g clip-path="url(#6b6e7e1586)"><g clip-path="url(#ea0f14db92)"><path fill="#fffadc" d="M 222.957031 190.230469 L 224.679688 208.902344 L 212.730469 210.003906 L 211.007812 191.335938 L 222.957031 190.230469 " fill-opacity="1" fill-rule="nonzero"/></g></g><g clip-path="url(#7b66e58581)"><path fill="#8ec13f" d="M 264.710938 258.566406 L 230.398438 258.566406 C 227.238281 258.566406 224.679688 261.136719 224.679688 264.3125 L 224.679688 313.167969 C 224.679688 316.339844 227.238281 318.914062 230.398438 318.914062 L 264.710938 318.914062 C 267.871094 318.914062 270.429688 316.339844 270.429688 313.167969 L 270.429688 264.3125 C 270.429688 261.136719 267.871094 258.566406 264.710938 258.566406 " fill-opacity="1" fill-rule="nonzero"/></g><g clip-path="url(#bda13416be)"><path fill="#336d42" d="M 270.429688 264.3125 L 224.679688 264.3125 L 224.679688 313.167969 L 270.429688 313.167969 L 270.429688 264.3125 " fill-opacity="1" fill-rule="nonzero"/></g><path fill="#f4f4e6" d="M 235.128906 300.625 C 232.1875 297.535156 230.398438 293.355469 230.398438 288.742188 C 230.398438 279.214844 238.078125 271.496094 247.554688 271.496094 C 252.144531 271.496094 256.304688 273.292969 259.378906 276.25 L 261.292969 278.394531 C 263.4375 281.28125 264.710938 284.863281 264.710938 288.742188 C 264.710938 298.265625 257.03125 305.984375 247.554688 305.984375 C 243.695312 305.984375 240.132812 304.703125 237.261719 302.566406 L 235.128906 300.625 " fill-opacity="1" fill-rule="nonzero"/><path fill="#d3843d" d="M 253.273438 252.816406 L 241.835938 252.816406 L 241.835938 247.070312 L 253.273438 247.070312 L 253.273438 252.816406 " fill-opacity="1" fill-rule="nonzero"/><path fill="#ffd782" d="M 253.273438 247.070312 L 241.835938 247.070312 L 241.835938 238.449219 C 241.835938 236.859375 243.113281 235.574219 244.695312 235.574219 L 250.414062 235.574219 C 251.996094 235.574219 253.273438 236.859375 253.273438 238.449219 L 253.273438 247.070312 " fill-opacity="1" fill-rule="nonzero"/><path fill="#143441" d="M 253.273438 242.757812 L 248.984375 242.757812 L 248.984375 239.886719 L 253.273438 239.886719 L 253.273438 242.757812 " fill-opacity="1" fill-rule="nonzero"/><path fill="#143441" d="M 247.554688 300.234375 C 247.554688 300.234375 244.695312 296.078125 244.695312 294.488281 L 244.695312 288.742188 L 250.414062 288.742188 L 250.414062 294.488281 C 250.414062 296.078125 247.554688 300.234375 247.554688 300.234375 " fill-opacity="1" fill-rule="nonzero"/><path fill="#143441" d="M 248.984375 285.492188 L 246.125 285.492188 L 246.125 277.246094 L 248.984375 277.246094 L 248.984375 285.492188 " fill-opacity="1" fill-rule="nonzero"/><path fill="#394d5c" d="M 256.132812 294.488281 L 250.414062 293.050781 L 250.414062 290.175781 L 256.132812 288.742188 C 257.714844 288.742188 258.992188 290.027344 258.992188 291.613281 C 258.992188 293.203125 257.714844 294.488281 256.132812 294.488281 " fill-opacity="1" fill-rule="nonzero"/><path fill="#394d5c" d="M 244.695312 293.050781 L 238.976562 294.488281 C 237.394531 294.488281 236.117188 293.203125 236.117188 291.613281 C 236.117188 290.027344 237.394531 288.742188 238.976562 288.742188 L 244.695312 290.175781 L 244.695312 293.050781 " fill-opacity="1" fill-rule="nonzero"/><path fill="#f9bb4b" d="M 254.703125 258.566406 L 240.40625 258.566406 C 238.824219 258.566406 237.546875 257.28125 237.546875 255.691406 C 237.546875 254.101562 238.824219 252.816406 240.40625 252.816406 L 254.703125 252.816406 C 256.285156 252.816406 257.5625 254.101562 257.5625 255.691406 C 257.5625 257.28125 256.285156 258.566406 254.703125 258.566406 " fill-opacity="1" fill-rule="nonzero"/><path fill="#c8d952" d="M 266.140625 308.859375 L 263.28125 308.859375 L 263.28125 305.984375 L 266.140625 305.984375 L 266.140625 308.859375 " fill-opacity="1" fill-rule="nonzero"/><path fill="#c8d952" d="M 236.117188 308.859375 L 230.398438 308.859375 C 229.609375 308.859375 228.96875 308.210938 228.96875 307.421875 L 228.96875 301.671875 L 231.828125 301.671875 L 231.828125 305.984375 L 236.117188 305.984375 L 236.117188 308.859375 " fill-opacity="1" fill-rule="nonzero"/><path fill="#c8d952" d="M 231.828125 271.496094 L 228.96875 271.496094 L 228.96875 268.625 L 231.828125 268.625 L 231.828125 271.496094 " fill-opacity="1" fill-rule="nonzero"/><path fill="#c8d952" d="M 266.140625 275.808594 L 263.28125 275.808594 L 263.28125 271.496094 L 258.992188 271.496094 L 258.992188 268.625 L 264.710938 268.625 C 265.5 268.625 266.140625 269.269531 266.140625 270.0625 L 266.140625 275.808594 " fill-opacity="1" fill-rule="nonzero"/><g clip-path="url(#08c08a50e0)"><path fill="#4da6ea" d="M 260.003906 240.902344 L 257.980469 238.871094 L 262.269531 234.558594 L 264.292969 236.589844 L 260.003906 240.902344 " fill-opacity="1" fill-rule="nonzero"/></g><path fill="#4da6ea" d="M 262.269531 250.960938 L 257.980469 246.648438 L 260.003906 244.617188 L 264.292969 248.929688 L 262.269531 250.960938 " fill-opacity="1" fill-rule="nonzero"/><path fill="#394d5c" d="M 250.414062 285.867188 C 250.414062 287.457031 249.136719 288.742188 247.554688 288.742188 C 245.972656 288.742188 244.695312 287.457031 244.695312 285.867188 C 244.695312 284.277344 245.972656 282.992188 247.554688 282.992188 C 249.136719 282.992188 250.414062 284.277344 250.414062 285.867188 " fill-opacity="1" fill-rule="nonzero"/><path fill="#da1c4b" d="M 261.292969 278.394531 L 237.261719 302.566406 C 236.503906 301.976562 235.789062 301.332031 235.128906 300.625 L 259.378906 276.25 C 260.082031 276.914062 260.722656 277.632812 261.292969 278.394531 " fill-opacity="1" fill-rule="nonzero"/></svg>